<?xml version="1.0" standalone="no"?>
<!DOCTYPE svg PUBLIC "-//W3C//DTD SVG 20010904//EN"
 "http://www.w3.org/TR/2001/REC-SVG-20010904/DTD/svg10.dtd">
<svg version="1.0" xmlns="http://www.w3.org/2000/svg"
 width="300.000000pt" height="314.000000pt" viewBox="0 0 300.000000 314.000000"
 preserveAspectRatio="xMidYMid meet">
<metadata>
Created by potrace 1.10, written by Peter Selinger 2001-2011
</metadata>
<g transform="translate(0.000000,314.000000) scale(0.100000,-0.100000)"
fill="#000000" stroke="none">
<path d="M640 3110 c-70 -11 -163 -45 -214 -79 -53 -35 -56 -37 -101 -59 -103
-49 -220 -344 -241 -607 -4 -44 -17 -111 -30 -150 -47 -145 -55 -432 -19 -666
9 -52 20 -136 26 -187 33 -303 156 -560 322 -672 53 -36 76 -60 100 -104 49
-87 135 -192 209 -255 96 -82 203 -139 362 -194 78 -27 177 -62 221 -78 69
-25 95 -29 187 -29 88 0 119 4 172 24 57 20 73 22 118 14 212 -40 683 97 953
277 45 30 97 71 114 90 61 70 154 282 168 383 6 45 5 46 -12 32 -17 -14 -18
-13 -12 25 4 22 7 73 7 114 0 57 3 72 14 68 10 -4 11 4 5 40 -19 100 -99 228
-195 310 -31 26 -83 82 -114 123 -109 143 -246 258 -398 334 -74 37 -222 85
-288 94 l-57 7 -13 53 c-42 165 -173 338 -384 507 -14 11 -42 54 -63 95 -80
159 -194 279 -339 353 -40 21 -95 52 -123 68 -102 59 -255 88 -375 69z m236
-71 c207 -63 289 -175 414 -559 63 -195 83 -228 60 -102 -35 193 -90 346 -166
464 -24 37 -41 68 -38 68 15 0 108 -76 157 -130 98 -105 149 -222 151 -342 1
-37 4 -68 7 -68 3 0 14 18 24 40 27 60 53 55 135 -28 146 -149 250 -328 250
-430 0 -20 -11 -63 -25 -97 -33 -84 -55 -217 -55 -337 0 -112 14 -123 24 -19
9 94 50 243 84 304 52 96 112 108 256 51 228 -90 403 -233 512 -420 61 -104
70 -317 19 -469 -16 -47 34 27 56 83 18 45 23 79 23 162 1 58 -3 116 -8 129
-12 35 5 24 62 -42 135 -156 157 -344 68 -581 -68 -181 -134 -262 -286 -351
-65 -39 -78 -50 -68 -62 6 -8 7 -17 2 -22 -25 -21 -273 -116 -281 -107 -3 3 5
10 18 16 13 5 66 39 117 74 51 36 99 63 106 60 18 -7 126 132 126 161 0 4 -25
-16 -56 -44 -240 -220 -421 -297 -719 -308 l-150 -6 39 43 c21 23 49 66 61 94
31 67 56 156 45 156 -5 0 -11 -13 -15 -29 -15 -70 -113 -199 -185 -245 -159
-102 -339 -66 -512 103 -43 41 -58 50 -58 37 0 -10 29 -47 65 -82 36 -35 64
-64 61 -64 -2 0 -52 18 -112 40 -109 41 -234 107 -309 163 -120 91 -229 222
-268 321 -22 57 -28 185 -14 316 9 92 -4 77 -34 -37 -27 -105 -30 -211 -6
-224 9 -6 17 -20 16 -32 0 -12 -3 -16 -6 -9 -2 6 -11 12 -19 12 -7 0 -11 6 -8
13 3 8 -13 28 -38 47 -49 38 -113 114 -152 181 -57 99 -125 330 -126 426 0 62
17 75 125 92 l50 8 -48 8 c-27 4 -71 5 -97 2 -44 -5 -49 -4 -54 16 -34 139
-34 608 0 697 4 9 13 -5 24 -37 25 -72 82 -155 143 -208 29 -25 55 -45 59 -45
4 0 -15 30 -43 66 -126 167 -161 308 -123 505 34 181 125 404 182 449 67 53
102 20 241 -221 104 -182 99 -174 106 -168 8 9 -47 172 -81 241 -33 65 -108
167 -148 199 -20 16 -19 17 24 39 123 64 269 78 396 39z m626 -526 c22 -19 23
-29 4 -36 -10 -4 -18 4 -25 24 -11 33 -6 36 21 12z m478 -595 c0 -5 -5 -8 -12
-8 -6 0 -26 -11 -44 -25 -41 -31 -46 -31 -34 1 6 14 10 36 10 49 l0 24 40 -17
c22 -9 40 -20 40 -24z m764 -515 c23 -25 24 -28 8 -39 -15 -11 -19 -9 -29 14
-13 28 -16 52 -8 52 2 0 15 -12 29 -27z m-1054 -1286 c0 -7 -20 -20 -45 -30
-50 -18 -51 -6 -1 24 37 22 46 24 46 6z"/>
<path d="M1040 2574 c0 -15 37 -106 86 -216 26 -56 55 -128 65 -158 12 -39 19
-50 24 -38 9 23 -11 148 -34 208 -28 74 -141 237 -141 204z"/>
<path d="M965 2185 c3 -11 31 -85 62 -165 104 -270 160 -489 182 -710 5 -52 7
-97 4 -100 -5 -5 -54 49 -112 125 -21 28 -67 100 -101 160 -34 61 -77 130 -95
155 -71 96 -203 202 -360 290 -33 18 -75 42 -94 53 -60 36 -28 1 59 -64 172
-128 375 -346 470 -502 19 -31 40 -57 46 -57 6 0 19 -11 28 -25 23 -35 -4 -35
-30 0 -43 58 -221 160 -364 208 -72 25 -189 57 -206 57 -22 0 19 -20 86 -40
87 -28 217 -93 361 -182 75 -46 137 -97 233 -189 l130 -126 -34 -18 c-36 -18
-150 -122 -150 -136 0 -4 19 3 43 16 55 31 109 50 222 79 88 22 95 23 229 10
77 -7 157 -16 179 -20 70 -11 32 12 -50 30 -43 10 -90 22 -105 27 -17 5 -28 4
-28 -1 0 -5 -12 -7 -27 -5 -79 13 -111 11 -189 -10 -87 -23 -104 -20 -82 14 9
15 9 23 -1 35 -11 13 -11 16 3 16 9 0 16 -4 16 -8 0 -4 13 -9 28 -10 29 -2 87
41 109 82 9 17 14 14 56 -27 25 -26 58 -49 74 -53 15 -4 31 -11 34 -16 3 -5
54 -2 120 7 63 10 197 19 299 22 222 7 213 20 -20 32 -104 6 -147 11 -130 16
14 5 72 33 129 62 140 72 190 85 301 81 88 -3 113 3 68 16 -58 17 -195 18
-261 2 -121 -29 -251 -105 -262 -156 -7 -31 -17 -35 -131 -46 l-67 -7 16 29
c9 16 18 41 22 56 7 36 17 35 35 -5 9 -18 27 -36 42 -41 40 -14 67 16 134 148
81 160 122 213 214 279 l25 18 -25 -7 c-40 -11 -121 -67 -173 -120 -56 -57
-111 -160 -127 -239 -9 -43 -15 -55 -30 -55 -11 0 -26 12 -34 28 -37 73 -47
400 -21 677 14 146 19 181 32 228 2 9 0 17 -5 17 -12 0 -47 -96 -67 -181 -22
-96 -38 -384 -30 -536 9 -175 1 -249 -31 -269 -30 -20 -74 -11 -108 23 -29 29
-33 75 -15 153 18 75 13 292 -9 405 -19 93 -40 164 -41 139 -1 -6 6 -57 15
-115 11 -75 14 -143 11 -244 -8 -190 -35 -282 -106 -353 l-34 -35 -38 44 -38
44 -1 95 c-1 188 -47 410 -124 601 -43 106 -120 256 -151 294 -17 20 -17 20
-10 0z"/>
<path d="M2460 721 c-76 -40 -200 -80 -287 -94 -40 -6 -73 -15 -73 -19 0 -16
168 -8 228 10 60 19 153 75 187 112 24 27 11 25 -55 -9z"/>
<path d="M1020 718 c0 -12 112 -31 185 -31 73 -1 171 18 181 35 4 6 -64 8
-180 6 -102 -2 -186 -6 -186 -10z"/>
<path d="M940 581 c0 -16 91 -89 150 -120 30 -16 79 -34 108 -40 62 -13 188
-13 217 -1 11 5 15 9 8 9 -6 1 -47 6 -90 11 -136 19 -227 49 -318 105 -27 17
-56 35 -62 39 -7 4 -13 3 -13 -3z"/>
</g>
</svg>
