<?xml version="1.0" standalone="no"?>
<!DOCTYPE svg PUBLIC "-//W3C//DTD SVG 20010904//EN"
 "http://www.w3.org/TR/2001/REC-SVG-20010904/DTD/svg10.dtd">
<svg version="1.0" xmlns="http://www.w3.org/2000/svg"
 width="300.000000pt" height="168.000000pt" viewBox="0 0 300.000000 168.000000"
 preserveAspectRatio="xMidYMid meet">
<metadata>
Created by potrace 1.10, written by Peter Selinger 2001-2011
</metadata>
<g transform="translate(0.000000,168.000000) scale(0.100000,-0.100000)"
fill="#000000" stroke="none">
<path d="M778 1543 l-348 -3 0 -274 0 -274 -52 -38 c-29 -21 -60 -44 -68 -51
-128 -110 -164 -138 -192 -147 l-33 -11 -5 -92 c-3 -51 -3 -181 0 -290 5 -196
5 -198 27 -201 15 -2 23 -10 23 -23 0 -18 8 -19 153 -18 154 1 259 15 147 19
-30 1 -68 6 -85 10 -16 4 505 8 1158 8 1109 1 1187 0 1185 -16 -3 -15 13 -17
155 -20 107 -2 156 1 152 8 -3 5 -23 10 -43 11 -20 0 -46 4 -57 9 -21 9 -21 9
8 15 11 2 20 5 22 7 7 7 8 565 1 576 -4 7 -20 12 -37 12 -20 0 -29 5 -29 16 0
8 -4 12 -10 9 -5 -3 -10 1 -10 10 0 9 -4 14 -8 11 -7 -4 -68 42 -209 160 l-43
35 0 268 0 268 -77 7 c-70 6 -905 5 -1725 -1z m1669 -19 l69 -7 -4 -28 c-6
-39 5 -37 17 4 9 30 9 28 12 -28 l2 -60 7 65 c5 49 7 26 8 -91 1 -86 5 -205 9
-264 5 -81 3 -106 -5 -101 -8 5 -13 54 -14 149 l-2 142 -3 -138 c-2 -86 -7
-136 -13 -132 -6 3 -10 28 -10 56 0 27 -4 49 -10 49 -5 0 -7 -20 -3 -48 l5
-49 -32 5 c-31 4 -32 5 -25 51 8 56 -9 76 -96 115 -80 37 -158 49 -279 43 -83
-4 -119 -1 -180 14 -113 30 -247 35 -366 15 -73 -12 -108 -14 -134 -6 -53 15
-94 12 -117 -10 -20 -18 -25 -18 -55 -6 -87 36 -184 48 -356 44 -212 -6 -248
-17 -298 -93 -20 -29 -44 -79 -54 -112 -11 -32 -19 -51 -20 -43 -1 10 -4 9 -9
-5 -8 -19 -11 -1 -24 170 -2 22 -5 4 -6 -40 -1 -44 -6 -100 -11 -125 -8 -37
-8 -30 -5 34 3 43 6 158 7 255 0 97 4 156 7 131 l6 -45 8 42 7 43 243 2 c585
7 1661 8 1724 2z m-1337 -246 c79 -16 196 -58 218 -78 23 -22 21 -34 -14 -101
-8 -17 -13 -33 -11 -36 3 -2 11 6 18 19 l12 23 8 -30 c5 -18 4 -34 -2 -40 -5
-5 -51 -11 -102 -11 -87 -2 -89 -1 -27 5 l65 8 -61 1 c-34 1 -76 5 -94 9 -25
5 -31 3 -25 -7 6 -10 -6 -11 -56 -5 -82 9 -140 25 -132 38 3 5 -4 6 -18 2
-145 -47 -306 -58 -357 -26 -21 13 8 60 62 100 25 19 46 39 46 43 0 11 -13 4
-60 -31 l-34 -25 23 39 c60 100 105 115 336 113 88 -1 180 -6 205 -10z m760
-17 c30 -8 32 -9 10 -11 l-25 -2 25 -8 c24 -8 23 -8 -8 -9 -40 -1 -52 -27 -52
-107 0 -31 -4 -54 -11 -54 -5 0 -7 -4 -4 -10 3 -5 -4 -11 -17 -11 l-23 -2 23
-4 c34 -7 26 -21 -12 -20 -20 1 -32 5 -29 11 4 5 -1 7 -12 2 -22 -8 -198 -27
-203 -21 -2 2 13 6 34 10 83 12 145 27 140 33 -10 9 -89 3 -100 -8 -6 -6 -29
-10 -53 -10 -24 0 -43 -4 -43 -10 0 -14 -54 -13 -102 2 -26 8 -35 14 -26 20 9
5 7 8 -7 8 -17 0 -17 2 -5 10 13 9 13 10 0 10 -13 0 -13 1 0 10 12 8 12 10 -5
10 -11 0 -15 4 -10 8 6 4 11 23 13 43 2 31 -3 41 -28 63 -18 14 -39 26 -48 26
-15 1 -14 3 2 15 11 8 38 15 60 15 27 0 36 -3 28 -9 -10 -6 -5 -11 19 -20 45
-16 71 -12 29 4 -53 21 -29 18 83 -10 140 -35 137 -34 137 -25 0 4 -16 11 -35
14 -19 4 -54 16 -77 27 l-43 20 55 -5 c40 -4 49 -3 35 4 -25 13 234 4 285 -9z
m376 -30 c23 -4 48 -13 55 -20 8 -6 27 -22 42 -36 29 -26 39 -30 51 -18 4 4
-10 17 -31 30 -42 25 -38 31 5 9 50 -26 75 -61 67 -96 -5 -21 -2 -38 9 -55 19
-29 16 -32 -59 -39 -43 -4 -50 -3 -22 3 60 13 52 18 -28 17 -46 0 -69 -4 -58
-8 10 -5 -2 -6 -27 -3 -25 3 -65 8 -90 10 l-45 5 35 -12 35 -12 -55 -7 c-30
-4 -89 -7 -130 -7 -61 1 -67 2 -30 7 l45 6 -47 14 c-43 12 -66 11 -120 -5 -31
-9 -19 13 24 45 23 17 36 31 29 31 -7 0 -26 -9 -41 -20 l-29 -20 5 57 c9 108
6 103 79 103 77 0 204 -25 219 -44 16 -19 89 -35 128 -27 31 6 27 8 -50 30
-45 13 -80 26 -77 29 2 3 -7 11 -22 19 -14 7 -28 11 -31 8 -3 -3 0 -5 6 -5 7
0 12 -4 12 -9 0 -8 -87 13 -98 24 -8 8 199 5 244 -4z m-1549 -217 c56 3 132 8
170 10 47 3 57 1 33 -4 -27 -6 -21 -7 25 -4 33 2 133 -2 223 -8 130 -9 167 -9
186 2 15 8 35 10 53 5 15 -4 129 -10 253 -15 124 -4 257 -12 295 -19 50 -8
103 -8 185 -2 63 6 188 10 278 10 l163 0 140 -115 140 -114 -1328 1 c-730 1
-1317 4 -1303 6 14 2 61 8 105 13 l80 9 -100 -3 c-55 -2 -87 -2 -71 1 20 3 25
7 17 13 -9 5 31 44 128 123 l141 115 42 -15 c33 -12 68 -14 145 -9z m2213
-554 l0 -280 -1405 0 -1405 0 0 280 0 280 1405 0 1405 0 0 -280z"/>
<path d="M1901 1489 c-24 -5 -47 -11 -50 -15 -7 -7 103 6 139 17 23 7 22 7
-10 7 -19 0 -55 -4 -79 -9z"/>
<path d="M2375 1430 c-55 -39 -102 -75 -104 -82 -4 -11 176 109 209 138 36 34
-14 7 -105 -56z"/>
<path d="M1970 1465 c-647 -91 -850 -120 -850 -126 0 -7 -42 -12 535 67 264
36 482 67 484 70 8 7 -71 2 -169 -11z"/>
<path d="M2423 1406 c-18 -11 -33 -25 -33 -29 0 -8 23 3 55 26 32 24 13 27
-22 3z"/>
<path d="M615 1305 c-5 -2 -30 -9 -54 -15 -23 -6 -41 -13 -38 -16 7 -7 106 17
113 27 5 9 -2 11 -21 4z"/>
<path d="M1010 1178 c-41 -43 -70 -78 -65 -78 15 0 153 146 144 153 -2 2 -38
-32 -79 -75z"/>
<path d="M1158 1244 c23 -9 40 -19 37 -23 -2 -5 13 -15 35 -24 22 -8 37 -11
34 -5 -4 6 2 8 17 4 13 -3 -5 8 -39 25 -35 16 -78 32 -95 35 -27 3 -26 2 11
-12z"/>
<path d="M1039 1163 l-44 -47 42 33 c44 33 58 49 51 56 -2 3 -24 -16 -49 -42z"/>
<path d="M684 1060 c-5 -5 -22 -11 -39 -13 -16 -3 -1 -3 35 -2 36 2 76 8 89
13 20 7 15 9 -26 10 -28 0 -54 -3 -59 -8z"/>
<path d="M1440 1220 c-14 -4 -18 -9 -10 -9 8 -1 26 -4 40 -7 20 -5 22 -4 10 6
-12 9 -8 10 20 6 26 -5 30 -4 15 3 -24 11 -42 12 -75 1z"/>
<path d="M1718 1223 c-21 -2 -38 -8 -38 -12 0 -10 85 -2 115 10 16 6 14 8 -10
7 -16 -1 -47 -3 -67 -5z"/>
<path d="M1900 1171 c0 -15 110 -102 149 -118 48 -20 50 -8 2 16 -22 12 -65
41 -96 66 -30 25 -55 41 -55 36z"/>
<path d="M850 894 c-190 -18 -356 -33 -369 -33 -13 -1 -22 -4 -18 -7 3 -3 70
-1 149 5 79 7 202 16 273 22 175 14 365 36 373 43 8 9 -34 6 -408 -30z"/>
<path d="M2175 913 c-75 -4 -487 -38 -657 -55 -71 -6 -128 -15 -128 -20 0 -4
12 -6 28 -3 15 2 59 6 97 9 39 3 172 15 297 26 125 11 295 23 378 26 83 4 153
11 156 16 5 8 -43 8 -171 1z"/>
<path d="M1795 853 c-82 -7 -154 -18 -160 -24 -7 -7 -2 -9 15 -5 14 4 107 12
208 20 101 8 186 17 189 20 9 9 -85 5 -252 -11z"/>
<path d="M605 849 c-55 -5 -111 -14 -125 -19 -24 -10 -24 -10 5 -6 17 3 82 8
145 12 63 3 122 10 130 15 18 10 -16 10 -155 -2z"/>
<path d="M2485 810 c-76 -6 -73 -6 48 -8 79 -1 127 2 127 8 0 11 -42 11 -175
0z"/>
<path d="M2872 465 l1 -240 8 224 c5 134 4 231 -1 240 -6 10 -9 -74 -8 -224z"/>
<path d="M2590 678 c-586 -82 -2148 -332 -2160 -345 -3 -3 13 -3 35 0 1046
166 1597 251 2195 341 73 10 84 14 45 14 -27 0 -79 -5 -115 -10z"/>
<path d="M125 458 c-4 -90 -5 -181 -3 -203 4 -30 5 -23 8 30 l4 70 6 -75 c4
-41 5 17 2 130 -2 113 -6 206 -7 208 -2 2 -6 -70 -10 -160z"/>
<path d="M2830 458 c0 -103 4 -148 10 -138 13 20 13 290 0 290 -6 0 -10 -57
-10 -152z"/>
<path d="M2360 573 c-14 -2 -104 -15 -200 -29 -254 -37 -332 -51 -289 -53 20
0 58 3 85 8 94 18 405 61 439 61 19 0 35 5 35 10 0 10 -22 11 -70 3z"/>
<path d="M2803 440 c0 -47 2 -66 4 -42 2 23 2 61 0 85 -2 23 -4 4 -4 -43z"/>
<path d="M1723 373 c26 -2 67 -2 90 0 23 2 2 3 -48 3 -49 0 -68 -1 -42 -3z"/>
<path d="M1720 349 c-770 -33 -1248 -61 -1289 -75 -34 -11 4 -13 100 -4 189
17 973 58 1479 76 195 7 331 22 195 22 -38 -1 -257 -9 -485 -19z"/>
<path d="M161 258 c1 -37 2 -39 9 -18 12 36 12 60 0 60 -5 0 -10 -19 -9 -42z"/>
<path d="M1310 290 c-63 -4 -125 -8 -137 -9 -13 0 -23 -4 -23 -9 0 -4 53 -4
118 1 64 5 386 9 714 10 329 1 598 5 598 10 0 9 -1111 6 -1270 -3z"/>
<path d="M1870 221 c0 -8 59 -11 193 -11 107 0 317 -2 468 -4 204 -3 239 -2
139 3 -265 16 -800 24 -800 12z"/>
<path d="M602 133 c32 -2 84 -2 116 0 31 2 5 3 -58 3 -63 0 -89 -1 -58 -3z"/>
<path d="M965 130 c61 -4 349 -10 640 -13 301 -3 474 -2 400 3 -71 4 -359 10
-640 13 -283 3 -461 2 -400 -3z"/>
<path d="M2103 133 c64 -2 170 -2 235 0 64 1 11 3 -118 3 -129 0 -182 -2 -117
-3z"/>
<path d="M870 60 c0 -6 111 -9 318 -8 260 1 293 3 182 9 -213 11 -500 10 -500
-1z"/>
</g>
</svg>
