<?xml version="1.0" standalone="no"?>
<!DOCTYPE svg PUBLIC "-//W3C//DTD SVG 20010904//EN"
 "http://www.w3.org/TR/2001/REC-SVG-20010904/DTD/svg10.dtd">
<svg version="1.0" xmlns="http://www.w3.org/2000/svg"
 width="300.000000pt" height="274.000000pt" viewBox="0 0 300.000000 274.000000"
 preserveAspectRatio="xMidYMid meet">
<metadata>
Created by potrace 1.10, written by Peter Selinger 2001-2011
</metadata>
<g transform="translate(0.000000,274.000000) scale(0.100000,-0.100000)"
fill="#000000" stroke="none">
<path d="M1119 2714 c-409 -74 -784 -356 -974 -733 -37 -75 -105 -268 -104
-297 1 -20 0 -21 32 81 68 216 179 398 342 560 213 213 434 324 770 389 39 8
57 14 40 14 -16 0 -64 -6 -106 -14z"/>
<path d="M1855 2705 c276 -58 455 -141 647 -302 232 -193 390 -456 458 -761
15 -66 18 -74 14 -35 -7 74 -57 238 -103 336 -160 344 -448 603 -804 722 -97
33 -256 66 -301 64 -11 -1 29 -11 89 -24z"/>
<path d="M1390 2550 c-355 -37 -660 -217 -859 -504 -327 -474 -272 -1104 134
-1511 151 -153 333 -257 542 -311 133 -35 347 -44 485 -20 366 62 680 289 851
615 337 642 27 1432 -655 1670 -153 53 -346 77 -498 61z m133 -27 c-18 -2 -48
-2 -65 0 -18 2 -4 4 32 4 36 0 50 -2 33 -4z m111 -23 c155 -18 285 -61 436
-142 71 -39 189 -126 219 -161 7 -9 18 -14 24 -10 5 3 7 2 4 -4 -4 -6 5 -21
19 -34 14 -13 44 -48 66 -79 23 -30 51 -65 62 -78 11 -12 21 -30 22 -39 2 -10
10 -23 19 -29 15 -11 22 -29 24 -62 1 -7 6 -10 13 -6 7 5 9 2 5 -9 -3 -9 5
-32 19 -53 14 -20 23 -39 19 -42 -3 -3 -5 1 -5 8 0 7 -3 11 -6 8 -3 -3 4 -23
15 -43 11 -20 17 -44 14 -53 -4 -9 -2 -13 4 -9 10 7 12 -2 12 -75 1 -16 5 -28
11 -28 6 0 8 -20 5 -47 -3 -32 -2 -38 3 -19 4 16 6 -40 6 -125 -2 -198 -2
-201 -13 -194 -6 3 -7 -9 -4 -31 4 -27 3 -35 -5 -30 -7 4 -12 3 -12 -3 0 -5
-3 -18 -6 -28 -5 -15 -4 -15 5 -3 9 13 11 13 11 -1 0 -9 -9 -26 -20 -39 -11
-13 -20 -28 -20 -34 0 -6 5 -4 10 4 13 20 12 10 -1 -28 -6 -19 -15 -29 -22
-25 -6 4 -8 0 -4 -10 7 -19 -12 -69 -23 -62 -4 2 -12 -7 -19 -21 -7 -17 -8
-23 0 -19 6 4 1 -11 -10 -34 -12 -23 -24 -41 -27 -41 -3 0 -2 5 2 12 4 7 3 8
-5 4 -6 -4 -9 -11 -6 -16 9 -14 -15 -51 -27 -44 -6 4 -8 3 -5 -3 10 -16 -47
-90 -145 -186 -54 -53 -95 -86 -104 -83 -7 3 -16 0 -20 -6 -5 -7 -2 -8 6 -3 9
5 11 4 6 -3 -4 -7 -17 -17 -29 -24 -21 -11 -21 -10 -7 7 12 15 8 15 -17 -4
-18 -12 -33 -26 -33 -31 0 -5 -10 -14 -22 -20 -22 -11 -22 -10 -4 4 24 19 8
21 -16 2 -10 -7 -15 -16 -11 -19 6 -6 -12 -11 -29 -8 -5 0 -8 -3 -8 -9 0 -5
-7 -6 -17 -3 -10 4 -14 2 -10 -4 7 -11 -40 -36 -53 -28 -4 3 -13 -2 -20 -10
-7 -8 -18 -15 -24 -15 -6 0 -4 5 4 10 17 11 10 13 -14 4 -9 -3 -13 -11 -9 -17
4 -6 0 -8 -10 -4 -8 3 -33 -3 -54 -14 -25 -13 -48 -17 -66 -13 -16 3 -34 1
-43 -7 -22 -18 -313 -19 -381 -1 -29 7 -58 10 -64 6 -8 -5 -9 -3 -4 6 6 10 2
11 -17 7 -15 -4 -33 -1 -46 9 -12 8 -35 17 -51 19 -16 2 -40 11 -54 20 -14 8
-29 15 -33 13 -5 -1 -31 12 -59 29 -27 17 -70 44 -95 59 -115 71 -255 210
-335 331 -15 24 -31 40 -36 38 -4 -3 -11 0 -15 6 -4 8 -3 9 4 5 16 -10 15 -1
-3 35 -9 16 -20 27 -25 24 -6 -3 -7 1 -4 9 3 8 -2 29 -12 47 -9 18 -27 61 -39
96 -12 35 -25 60 -29 56 -4 -4 -5 -1 -2 7 3 8 0 44 -7 80 -8 36 -16 59 -18 52
-7 -22 -3 282 5 343 15 111 55 235 112 348 37 73 40 82 22 71 -7 -4 -8 -3 -4
5 4 6 11 9 15 6 5 -2 25 21 46 52 21 31 77 98 126 148 49 51 86 94 83 97 -3 3
0 9 7 14 8 4 10 3 5 -4 -13 -21 3 -13 66 34 208 153 502 226 782 194z"/>
<path d="M1470 2425 c0 -24 5 -35 15 -35 10 0 15 11 15 35 0 24 -5 35 -15 35
-10 0 -15 -11 -15 -35z"/>
<path d="M1513 2360 c-33 -14 -55 -53 -47 -84 7 -30 38 -50 62 -41 14 5 12 8
-8 18 -36 18 -40 70 -7 92 43 28 87 -2 87 -60 0 -26 -65 -127 -109 -169 -17
-17 -31 -32 -31 -35 0 -3 37 -4 82 -1 80 5 82 5 89 34 11 38 3 46 -17 18 -12
-18 -25 -22 -64 -22 l-49 0 56 53 c62 57 84 98 76 139 -9 49 -70 79 -120 58z"/>
<path d="M1368 2344 c-32 -17 -35 -22 -10 -20 15 1 17 -12 20 -116 2 -99 0
-118 -12 -118 -8 0 -17 -4 -21 -9 -3 -6 16 -9 45 -9 49 1 64 10 35 22 -12 4
-15 29 -15 136 0 71 -3 130 -7 130 -5 -1 -20 -8 -35 -16z"/>
<path d="M1991 2303 c-16 -35 1 -52 23 -22 9 13 16 29 16 36 0 23 -26 14 -39
-14z"/>
<path d="M940 2305 c0 -16 26 -55 37 -55 16 0 17 14 3 41 -9 16 -40 28 -40 14z"/>
<path d="M1878 2254 c-29 -15 -39 -30 -14 -21 20 8 26 -22 26 -136 0 -92 -1
-98 -22 -107 -18 -7 -9 -9 37 -9 46 0 55 2 38 9 -22 9 -23 14 -23 145 0 74 -3
135 -7 135 -5 -1 -20 -8 -35 -16z"/>
<path d="M1113 2232 c-36 -17 -43 -31 -15 -28 15 1 17 -12 20 -116 2 -99 0
-118 -12 -118 -8 0 -18 -4 -21 -10 -4 -6 13 -10 44 -10 28 0 51 5 51 10 0 6
-7 10 -15 10 -12 0 -15 24 -17 139 l-3 138 -32 -15z"/>
<path d="M988 2224 c-32 -17 -36 -26 -10 -22 15 3 17 -9 20 -115 3 -114 2
-118 -20 -127 -18 -7 -9 -9 37 -9 46 0 55 2 38 9 -22 9 -23 14 -23 145 0 74
-3 135 -7 135 -5 -1 -20 -8 -35 -16z"/>
<path d="M2184 1969 c-62 -32 -47 -129 20 -129 23 0 19 14 -6 25 -35 15 -37
69 -3 91 57 37 101 -23 74 -100 -13 -38 -20 -43 -94 -73 -44 -19 -89 -44 -100
-57 -11 -13 -126 -81 -255 -151 -129 -70 -243 -137 -253 -148 -24 -27 -104
-31 -117 -6 -5 9 -61 41 -124 72 -63 31 -123 67 -133 81 -10 13 -71 49 -135
81 l-116 58 0 66 c1 72 -18 123 -51 141 -70 37 -131 -28 -131 -140 0 -72 20
-122 56 -139 39 -18 54 -14 90 25 l34 35 47 -32 c27 -18 71 -52 100 -76 28
-23 61 -43 73 -43 23 0 77 -34 184 -117 39 -30 78 -53 92 -53 15 0 24 -6 24
-15 0 -8 -7 -15 -15 -15 -8 0 -62 -21 -120 -47 -102 -47 -105 -49 -105 -80 0
-18 2 -33 4 -33 2 0 20 -7 41 -16 20 -8 34 -11 31 -5 -4 5 31 38 76 72 46 35
87 69 91 76 6 10 12 10 26 1 27 -16 49 -4 59 34 6 26 14 34 36 36 15 2 60 25
99 51 209 140 390 251 410 251 12 1 42 18 67 40 56 50 66 43 15 -10 l-39 -40
86 0 86 0 6 31 c9 48 7 53 -11 31 -17 -19 -113 -42 -113 -27 0 4 23 27 51 52
30 28 48 51 45 60 -3 8 -1 11 4 8 11 -7 104 44 96 53 -3 3 -24 -7 -46 -22 -36
-23 -40 -24 -31 -7 17 31 13 57 -11 86 -26 29 -81 41 -114 24z m-1298 -74 c9
-14 19 -55 22 -92 4 -59 3 -66 -11 -60 -10 4 -17 2 -17 -3 0 -6 5 -10 10 -10
13 0 13 -36 0 -61 -15 -26 -66 -26 -80 1 -30 56 -18 219 18 240 27 15 40 12
58 -15z m472 -625 c-12 -16 -29 -30 -39 -30 -9 0 -22 -7 -29 -15 -7 -8 -16
-12 -21 -9 -23 14 -7 27 109 83 1 0 -7 -12 -20 -29z"/>
<path d="M1467 1944 c-11 -11 -8 -114 3 -114 6 0 10 25 10 55 0 30 5 55 10 55
6 0 10 -25 10 -55 0 -32 4 -55 10 -55 7 0 10 22 8 58 -3 49 -6 57 -23 60 -12
2 -24 0 -28 -4z"/>
<path d="M556 1923 c-12 -12 -6 -23 23 -37 26 -14 41 -13 41 4 0 10 -57 40
-64 33z"/>
<path d="M685 1909 c-21 -13 -25 -19 -12 -19 15 0 17 -12 17 -120 0 -116 -1
-121 -22 -130 -17 -7 -8 -9 37 -8 33 0 52 2 43 5 -27 7 -31 37 -23 169 4 68 3
124 -1 123 -5 0 -22 -9 -39 -20z"/>
<path d="M1608 1875 c-9 -31 -11 -58 -7 -61 5 -3 11 1 13 8 2 7 8 29 15 49 13
42 14 59 3 59 -5 0 -16 -25 -24 -55z"/>
<path d="M1349 1865 c16 -55 39 -79 27 -27 -4 15 -10 39 -13 55 -3 15 -11 27
-18 27 -9 0 -9 -13 4 -55z"/>
<path d="M1667 1913 c-4 -3 -7 -18 -7 -32 0 -21 -2 -23 -10 -11 -7 11 -10 4
-10 -27 0 -56 15 -55 29 1 6 24 13 51 17 60 6 16 -7 22 -19 9z"/>
<path d="M1293 1896 c3 -8 11 -33 17 -55 6 -23 15 -41 20 -41 13 0 13 9 -6 63
-9 26 -20 47 -26 47 -6 0 -8 -6 -5 -14z"/>
<path d="M1752 1821 c-24 -39 -28 -52 -18 -60 9 -8 13 -7 13 2 0 7 12 31 26
54 29 46 32 53 18 53 -4 0 -22 -22 -39 -49z"/>
<path d="M1791 1798 c-33 -52 -34 -81 -1 -39 33 45 50 80 42 85 -5 3 -24 -17
-41 -46z"/>
<path d="M1150 1827 c0 -20 48 -97 61 -97 14 0 11 8 -26 63 -20 30 -35 44 -35
34z"/>
<path d="M1217 1804 c-3 -5 3 -21 14 -34 13 -18 19 -20 19 -9 0 21 -25 54 -33
43z"/>
<path d="M1310 1675 c0 -22 4 -34 10 -30 6 3 10 17 10 30 0 13 -4 27 -10 30
-6 4 -10 -8 -10 -30z"/>
<path d="M1387 1704 c-10 -11 -9 -54 2 -54 5 0 12 6 14 13 4 10 6 10 6 0 2
-28 21 -11 21 18 0 26 -3 29 -14 20 -10 -9 -15 -9 -18 -1 -2 6 -7 8 -11 4z"/>
<path d="M1540 1680 c0 -16 5 -30 10 -30 6 0 10 14 10 30 0 17 -4 30 -10 30
-5 0 -10 -13 -10 -30z"/>
<path d="M1570 1680 c0 -16 5 -30 10 -30 6 0 10 14 10 30 0 17 -4 30 -10 30
-5 0 -10 -13 -10 -30z"/>
<path d="M1630 1680 c0 -16 5 -30 10 -30 6 0 10 14 10 30 0 17 -4 30 -10 30
-5 0 -10 -13 -10 -30z"/>
<path d="M1660 1680 c0 -16 5 -30 10 -30 6 0 10 14 10 30 0 17 -4 30 -10 30
-5 0 -10 -13 -10 -30z"/>
<path d="M1720 1680 c0 -16 5 -30 10 -30 6 0 10 14 10 30 0 17 -4 30 -10 30
-5 0 -10 -13 -10 -30z"/>
<path d="M1220 1676 c0 -14 5 -28 10 -31 6 -4 10 7 10 24 0 17 -4 31 -10 31
-5 0 -10 -11 -10 -24z"/>
<path d="M2304 1539 c-20 -23 -11 -51 20 -57 15 -3 15 -1 5 16 -15 25 -5 52
19 52 28 0 46 -27 46 -67 0 -38 -15 -53 -56 -53 -16 0 -28 -4 -28 -9 0 -17 19
-22 41 -11 50 27 84 -75 39 -120 -24 -24 -48 -25 -78 -4 -24 17 -29 53 -10 72
8 8 9 12 1 12 -18 0 -43 -29 -43 -50 0 -26 47 -60 82 -60 40 0 82 24 96 55 18
39 15 54 -17 85 -28 28 -28 30 -10 46 26 24 24 60 -6 89 -30 31 -75 33 -101 4z"/>
<path d="M571 1506 c-68 -72 -11 -199 70 -156 29 16 24 -10 -11 -59 -20 -27
-41 -44 -60 -48 -17 -3 -30 -9 -30 -14 0 -27 78 10 117 54 79 90 62 237 -28
245 -26 2 -40 -3 -58 -22z m65 6 c37 -25 48 -124 15 -142 -45 -23 -71 3 -71
70 0 60 25 93 56 72z"/>
<path d="M2520 1408 c0 -14 8 -18 35 -18 27 0 35 4 35 18 0 13 -8 17 -35 17
-27 0 -35 -4 -35 -17z"/>
<path d="M400 1375 c0 -10 11 -15 35 -15 24 0 35 5 35 15 0 10 -11 15 -35 15
-24 0 -35 -5 -35 -15z"/>
<path d="M2200 1029 c-36 -60 -65 -113 -65 -116 0 -4 26 -6 58 -4 50 2 57 0
57 -16 0 -10 -6 -28 -14 -39 -13 -19 -12 -19 30 -19 49 0 50 1 29 21 -18 19
-20 54 -2 54 7 0 18 -5 25 -12 9 -9 12 -4 12 22 -1 31 -2 33 -14 18 -29 -39
-36 -20 -36 92 0 61 -3 110 -7 110 -5 0 -37 -50 -73 -111z m42 -57 l3 -52 -46
0 -47 0 42 74 c44 78 43 78 48 -22z"/>
<path d="M1327 1123 c-11 -10 -8 -93 3 -93 6 0 10 23 10 50 0 51 -1 55 -13 43z"/>
<path d="M1387 1123 c-10 -10 -8 -93 2 -93 5 0 11 23 13 50 3 48 -1 58 -15 43z"/>
<path d="M1430 1080 c0 -27 5 -50 10 -50 6 0 10 23 10 50 0 28 -4 50 -10 50
-5 0 -10 -22 -10 -50z"/>
<path d="M1490 1080 c0 -27 5 -50 10 -50 6 0 10 20 10 44 0 26 5 46 13 49 6 3
2 6 -10 6 -21 1 -23 -4 -23 -49z"/>
<path d="M1550 1080 c0 -27 5 -50 10 -50 6 0 10 23 10 50 0 28 -4 50 -10 50
-5 0 -10 -22 -10 -50z"/>
<path d="M1604 1116 c-9 -23 0 -79 13 -83 8 -3 12 11 11 46 0 49 -12 67 -24
37z"/>
<path d="M1650 1079 c0 -31 4 -48 10 -44 6 3 10 26 10 51 0 24 -4 44 -10 44
-5 0 -10 -23 -10 -51z"/>
<path d="M1702 1084 c2 -27 7 -48 12 -47 15 4 13 86 -2 91 -10 3 -12 -8 -10
-44z"/>
<path d="M1755 1103 c5 -23 4 -25 -9 -14 -13 11 -13 9 -3 -18 17 -46 33 -38
29 14 -2 25 -9 45 -14 45 -6 0 -7 -11 -3 -27z"/>
<path d="M1215 1111 c-3 -5 9 -19 26 -31 17 -13 28 -28 25 -36 -6 -17 10 -19
20 -2 4 6 -4 21 -19 34 -15 13 -27 28 -27 34 0 12 -17 13 -25 1z"/>
<path d="M706 1089 c-33 -26 -34 -68 -2 -106 l25 -28 -26 -27 c-52 -54 -24
-128 48 -128 77 0 107 83 51 140 l-28 28 28 31 c34 38 35 61 5 89 -29 28 -67
28 -101 1z m82 -11 c18 -18 14 -50 -8 -78 l-20 -25 -25 28 c-38 43 -28 87 20
87 12 0 26 -5 33 -12z m-16 -165 c36 -34 38 -79 4 -94 -37 -17 -66 3 -66 47 0
35 14 74 27 74 4 0 20 -12 35 -27z"/>
<path d="M1410 961 c0 -17 5 -33 10 -36 6 -4 10 8 10 29 0 20 -4 36 -10 36 -5
0 -10 -13 -10 -29z"/>
<path d="M1490 961 c0 -17 5 -33 10 -36 6 -4 10 8 10 29 0 20 -4 36 -10 36 -5
0 -10 -13 -10 -29z"/>
<path d="M2390 888 c0 -7 14 -21 32 -31 24 -14 33 -15 39 -5 5 8 -2 19 -19 30
-32 21 -52 23 -52 6z"/>
<path d="M567 864 c-23 -12 -39 -44 -22 -44 14 0 65 31 65 40 0 17 -15 18 -43
4z"/>
<path d="M1001 779 c-15 -45 -14 -57 5 -31 12 18 25 22 65 22 27 0 49 -2 49
-4 0 -2 -11 -28 -24 -57 -13 -30 -29 -81 -35 -114 -7 -33 -15 -68 -17 -77 -4
-13 0 -18 15 -18 18 0 21 6 21 43 1 60 15 115 50 190 16 36 30 68 30 71 0 3
-33 6 -74 6 l-74 0 -11 -31z"/>
<path d="M1894 773 c-36 -85 -36 -80 1 -87 69 -13 109 -102 65 -146 -21 -21
-55 -26 -65 -10 -11 18 -47 12 -43 -7 2 -13 15 -19 45 -21 88 -6 142 93 91
168 -13 19 -37 39 -53 44 -39 13 -38 11 -30 35 5 17 15 21 50 21 39 0 55 11
55 36 0 2 -22 4 -50 4 -48 0 -50 -1 -66 -37z"/>
<path d="M1503 680 c-104 -63 -123 -239 -30 -290 24 -13 30 -13 55 0 15 8 35
33 46 54 16 32 17 44 7 77 -6 21 -20 43 -31 49 -25 14 -63 13 -78 -2 -17 -17
-16 5 2 40 17 33 49 63 84 79 l27 11 -25 1 c-14 1 -39 -8 -57 -19z m32 -150
c29 -56 11 -130 -32 -130 -28 0 -53 49 -53 104 0 59 59 77 85 26z"/>
<path d="M2297 554 c-27 -26 -46 -48 -44 -50 2 -2 25 19 52 46 62 63 56 65 -8
4z"/>
<path d="M2021 501 c-11 -7 -10 -14 5 -40 19 -33 29 -38 39 -21 11 17 -28 70
-44 61z"/>
<path d="M946 461 c-14 -27 -12 -41 5 -41 8 0 39 52 39 65 0 17 -32 0 -44 -24z"/>
<path d="M1480 315 c0 -28 4 -35 20 -35 16 0 20 7 20 35 0 28 -4 35 -20 35
-16 0 -20 -7 -20 -35z"/>
<path d="M2975 1184 c-74 -447 -341 -818 -734 -1018 -112 -57 -247 -104 -369
-129 -75 -16 -114 -32 -51 -21 321 54 559 173 774 389 155 155 259 321 328
525 34 98 73 278 63 288 -3 2 -8 -13 -11 -34z"/>
</g>
</svg>
