<?xml version="1.0" standalone="no"?>
<!DOCTYPE svg PUBLIC "-//W3C//DTD SVG 20010904//EN"
 "http://www.w3.org/TR/2001/REC-SVG-20010904/DTD/svg10.dtd">
<svg version="1.0" xmlns="http://www.w3.org/2000/svg"
 width="300.000000pt" height="190.000000pt" viewBox="0 0 300.000000 190.000000"
 preserveAspectRatio="xMidYMid meet">
<metadata>
Created by potrace 1.10, written by Peter Selinger 2001-2011
</metadata>
<g transform="translate(0.000000,190.000000) scale(0.100000,-0.100000)"
fill="#000000" stroke="none">
<path d="M1510 1683 c-19 -8 -43 -17 -53 -19 -44 -8 -57 -18 -95 -67 -61 -79
-68 -99 -51 -149 l14 -43 6 55 c5 50 6 47 9 -35 l3 -90 11 100 c14 116 54 214
88 215 11 0 -3 -51 -32 -115 -10 -22 -21 -60 -24 -85 l-6 -45 15 30 c8 17 14
41 15 53 0 22 3 23 42 17 38 -7 41 -6 29 8 -20 25 -3 40 40 34 32 -4 39 -2 39
12 0 19 36 58 45 49 3 -3 -1 -29 -9 -59 -15 -60 -11 -72 33 -87 22 -8 35 -5
67 15 l39 25 -45 -5 c-24 -3 -46 -11 -48 -16 -2 -6 -8 -11 -13 -11 -7 0 -8 33
-4 88 5 75 3 90 -12 109 -24 29 -61 35 -103 16z m50 -25 c0 -13 -97 -108 -111
-108 -22 0 -5 29 43 72 55 49 68 56 68 36z"/>
<path d="M1111 1538 c-25 -4 -49 -13 -55 -19 -8 -9 -6 -10 9 -4 34 13 93 17
99 7 3 -5 1 -47 -4 -92 -5 -46 -8 -85 -6 -88 2 -2 23 2 45 9 30 9 45 9 53 1 6
-6 19 -52 30 -102 l18 -91 -25 -100 c-14 -55 -31 -115 -39 -133 -12 -28 -12
-42 -1 -87 13 -49 31 -170 37 -244 3 -28 1 -30 -29 -27 -27 3 -32 0 -27 -12 3
-9 1 -16 -4 -16 -22 0 -17 37 11 72 16 20 27 44 25 55 -3 14 -11 7 -36 -29
-33 -49 -40 -76 -21 -95 8 -8 2 -13 -21 -18 -17 -4 -29 -9 -26 -12 3 -3 -4
-13 -14 -22 -16 -13 -19 -24 -14 -54 4 -20 11 -37 15 -37 5 0 7 11 3 24 -3 15
1 34 12 51 18 28 121 85 153 85 23 0 36 16 21 25 -16 10 -2 24 19 18 10 -3 28
0 40 6 16 9 26 8 46 -5 14 -9 25 -12 25 -7 0 5 -16 17 -35 26 -31 15 -38 15
-70 1 -20 -8 -40 -12 -44 -10 -12 8 -12 99 0 107 6 4 2 19 -11 41 -44 76 -43
105 16 315 15 54 93 151 112 139 5 -3 10 5 10 19 0 14 -4 25 -8 25 -17 0 -78
-30 -90 -44 -7 -9 -16 -16 -21 -16 -16 0 -9 30 11 47 14 12 20 29 19 53 -1 27
-3 29 -6 10 -7 -36 -23 -49 -24 -20 0 22 -1 23 -8 6 -7 -18 -8 -18 -14 5 -11
39 -8 61 10 81 19 21 10 36 -11 19 -9 -8 -35 -11 -63 -9 l-48 4 3 39 c2 25 11
46 23 55 19 15 19 17 2 31 -27 23 -43 26 -92 17z"/>
<path d="M840 1514 c-14 -9 -40 -37 -57 -62 -18 -26 -51 -74 -74 -107 -24 -34
-44 -76 -47 -98 -5 -36 -4 -37 19 -29 13 5 44 7 68 4 55 -6 148 33 130 55 -17
19 -39 16 -39 -6 0 -27 -35 -31 -87 -9 -41 16 -43 16 -43 0 0 -13 -2 -14 -9
-3 -10 15 -3 51 10 51 5 0 9 9 9 20 0 19 28 50 74 83 18 12 26 27 26 48 0 35
41 62 62 41 7 -7 19 -12 28 -12 11 1 9 6 -9 20 -28 24 -29 24 -61 4z"/>
<path d="M1528 1504 c-4 -36 -31 -53 -58 -37 -17 11 -18 10 -13 -5 4 -9 13
-28 20 -42 7 -14 13 -37 13 -52 0 -16 4 -28 10 -28 5 0 12 12 15 28 3 15 12
55 20 89 18 72 18 73 6 73 -5 0 -11 -12 -13 -26z"/>
<path d="M1870 1506 c0 -10 103 -65 132 -70 25 -5 14 3 -42 33 -71 38 -90 46
-90 37z"/>
<path d="M1734 1476 c-28 -13 -60 -35 -71 -49 -19 -24 -22 -25 -48 -11 -25 13
-29 12 -41 -3 -39 -49 -42 -83 -6 -50 10 10 33 17 52 17 28 0 31 -2 20 -15 -7
-8 -20 -15 -29 -15 -9 0 4 -11 27 -25 24 -14 48 -22 53 -19 14 8 0 24 -22 24
-25 0 -24 25 4 75 18 32 29 41 55 43 24 2 32 -1 32 -13 0 -12 -6 -14 -27 -9
-20 5 -25 4 -21 -7 3 -8 15 -44 27 -81 22 -67 23 -68 58 -68 57 0 99 -28 185
-121 44 -48 92 -92 107 -98 41 -16 66 -17 63 -3 -1 6 2 12 7 12 11 0 28 44 35
90 6 32 5 33 -5 10 -27 -63 -36 -75 -63 -85 -27 -9 -32 -6 -82 50 -29 33 -63
80 -75 105 -33 71 -48 90 -64 84 -8 -4 -15 -13 -15 -21 0 -12 -10 -13 -57 -7
-32 3 -61 8 -65 10 -3 3 -3 18 2 35 8 27 6 32 -10 36 -19 5 -18 8 11 41 24 27
28 37 17 43 -21 14 1 10 30 -5 31 -15 132 -27 132 -15 0 10 -46 41 -83 57 -41
18 -76 15 -133 -12z"/>
<path d="M2013 1423 l-32 -4 16 -35 c17 -35 37 -44 46 -20 4 9 -3 17 -16 21
-21 6 -22 6 -2 14 11 5 27 6 35 4 20 -6 64 -27 70 -33 3 -3 19 -12 35 -20 19
-10 34 -28 41 -49 6 -20 22 -40 39 -49 l28 -14 -23 38 c-13 22 -27 43 -32 49
-4 5 -8 18 -8 30 0 16 -15 27 -62 48 -62 27 -71 28 -135 20z"/>
<path d="M1385 1380 c-3 -5 -4 -14 -1 -19 4 -5 1 -11 -4 -13 -14 -4 -31 -78
-19 -78 5 0 9 5 9 10 0 6 9 23 19 38 28 40 36 72 17 72 -8 0 -18 -4 -21 -10z"/>
<path d="M1453 1320 c-10 -26 -9 -30 6 -30 10 0 26 -10 37 -21 19 -21 19 -22
-3 -15 -14 5 -23 3 -23 -3 0 -6 12 -12 28 -12 34 -2 34 -2 54 6 11 4 16 1 15
-11 -1 -9 4 -19 11 -21 6 -3 12 0 12 6 0 19 -51 93 -58 86 -4 -4 -1 -10 6 -12
17 -6 15 -33 -2 -33 -8 0 -16 7 -20 15 -3 8 -12 15 -21 15 -8 0 -15 8 -15 18
0 35 -16 42 -27 12z"/>
<path d="M2117 1333 c-7 -11 3 -63 13 -63 15 0 19 45 6 58 -8 8 -16 10 -19 5z"/>
<path d="M1663 1240 c4 -53 4 -55 -38 -95 -142 -134 -207 -181 -237 -170 -16
6 -15 38 1 78 6 16 11 42 11 58 0 17 5 39 10 49 9 16 8 18 -5 14 -15 -6 -19
-17 -30 -89 -8 -54 -43 -143 -72 -182 -24 -33 -30 -67 -13 -78 6 -3 10 2 10
12 0 47 85 123 159 143 44 12 71 30 74 50 4 23 17 41 27 35 5 -3 27 14 50 37
34 35 40 39 35 19 -5 -16 -4 -21 4 -17 6 4 11 14 11 22 0 10 13 14 51 14 36 0
49 4 46 13 -2 6 -16 11 -31 10 -14 -1 -24 2 -21 6 2 5 -2 14 -10 21 -8 7 -15
27 -15 44 0 17 -5 38 -11 46 -8 11 -9 1 -6 -40z"/>
<path d="M2205 1242 c-3 -3 -5 -16 -5 -29 0 -21 2 -22 21 -13 15 8 24 8 34 0
15 -13 38 -4 33 12 -4 12 -75 38 -83 30z"/>
<path d="M888 1234 c-6 -10 52 -96 68 -101 13 -4 64 35 64 49 0 5 -15 1 -34
-10 -33 -20 -56 -15 -56 13 -1 16 -37 59 -42 49z"/>
<path d="M2310 1193 c19 -32 20 -37 6 -45 -14 -8 -14 -11 0 -33 9 -14 25 -25
35 -25 10 0 22 -7 27 -16 6 -11 16 -13 35 -9 35 9 27 21 -20 30 -45 8 -63 31
-56 68 4 18 0 34 -12 47 -30 33 -39 23 -15 -17z"/>
<path d="M1482 1207 c-27 -34 -42 -78 -33 -95 9 -15 10 -15 11 5 0 12 5 25 10
28 17 10 41 63 31 69 -5 3 -13 0 -19 -7z"/>
<path d="M1784 1198 c3 -13 6 -31 6 -40 0 -13 8 -18 30 -18 19 0 40 -9 55 -25
28 -27 33 -21 9 13 -8 12 -22 22 -30 22 -19 0 -14 20 9 34 13 8 21 6 34 -7 11
-11 13 -17 5 -17 -15 0 10 -53 41 -88 16 -17 18 -25 9 -34 -17 -17 -15 -28 3
-22 8 4 22 1 30 -6 9 -7 28 -10 48 -6 28 5 39 1 77 -34 24 -22 46 -40 49 -40
2 0 19 11 37 25 18 14 43 25 55 25 12 0 19 3 15 8 -10 9 146 40 158 31 5 -4
19 -3 32 1 28 11 33 -4 7 -19 -10 -5 -14 -13 -10 -17 4 -4 12 -3 19 4 8 8 20
0 45 -31 31 -37 67 -66 84 -67 3 0 6 14 7 31 1 57 27 51 37 -10 4 -27 2 -49
-10 -70 -8 -17 -12 -31 -7 -31 14 0 32 48 32 87 0 24 -11 53 -35 89 -50 75
-84 84 -214 60 -257 -47 -292 -50 -354 -25 -15 7 -53 45 -83 85 -63 84 -105
114 -159 114 -34 0 -37 -2 -31 -22z m205 -138 c36 -65 6 -46 -38 25 -23 35
-41 68 -41 72 1 13 54 -53 79 -97z m583 -64 c19 -14 37 -76 22 -76 -13 0 -74
63 -74 77 0 17 30 16 52 -1z"/>
<path d="M526 1169 c-14 -11 -26 -28 -26 -36 0 -12 4 -11 19 6 12 13 22 18 26
11 3 -5 17 -10 31 -10 14 0 22 -4 19 -10 -3 -5 -1 -10 4 -10 17 0 13 18 -6 29
-11 6 -13 11 -5 11 7 0 11 4 7 9 -3 5 3 12 12 14 10 3 2 5 -18 6 -23 1 -46 -7
-63 -20z"/>
<path d="M1553 1153 c-10 -16 -22 -31 -28 -35 -6 -5 -5 -8 3 -8 13 0 72 52 72
64 0 17 -32 3 -47 -21z"/>
<path d="M777 1137 c-3 -8 -2 -19 2 -26 5 -7 7 -24 5 -37 -2 -19 2 -24 14 -21
9 2 16 9 15 15 -2 7 2 12 8 12 6 0 3 8 -7 17 -11 12 -13 18 -5 21 9 3 9 7 0
18 -14 18 -25 18 -32 1z"/>
<path d="M1180 1079 c-36 -39 -83 -80 -105 -92 -22 -11 -34 -22 -28 -24 22 -8
81 36 140 105 32 37 63 70 68 74 7 5 7 8 0 8 -5 0 -39 -32 -75 -71z"/>
<path d="M886 1121 c-18 -20 -18 -21 5 -40 13 -11 30 -20 37 -21 15 0 16 -12
0 -28 -19 -19 -18 -42 3 -42 29 0 23 -20 -10 -33 -36 -13 -59 -46 -40 -57 12
-8 55 14 74 37 13 17 7 185 -6 177 -5 -3 -7 -10 -4 -15 4 -5 2 -9 -4 -9 -6 0
-16 11 -24 25 -13 26 -13 26 -31 6z"/>
<path d="M580 1097 c0 -4 6 -10 14 -13 8 -3 19 -18 25 -34 7 -21 17 -29 38
-32 19 -2 29 -9 31 -23 3 -24 -14 -52 -25 -42 -4 5 -1 12 7 17 11 7 9 10 -12
10 -38 0 -40 -11 -14 -61 21 -39 29 -45 77 -57 30 -8 58 -17 62 -22 5 -4 -22
-19 -59 -33 l-67 -26 -25 19 c-17 14 -40 20 -78 20 -30 0 -54 3 -54 8 0 12 51
47 77 52 25 5 25 5 7 28 -24 29 -81 43 -114 28 -22 -9 -19 -11 30 -14 71 -4
81 -15 30 -32 -47 -16 -73 -41 -75 -75 -1 -27 8 -30 65 -16 34 8 100 -10 100
-27 0 -4 -18 -25 -41 -46 -44 -43 -66 -76 -50 -76 5 0 28 18 51 40 35 34 89
60 126 60 6 0 36 23 65 50 43 40 59 49 78 44 34 -7 105 -58 125 -88 9 -14 29
-32 44 -40 27 -14 28 -13 30 10 1 13 -2 24 -7 24 -6 0 -8 11 -5 25 4 24 3 24
-16 13 -18 -11 -23 -10 -33 3 -7 8 -20 18 -29 22 -24 9 -23 24 2 32 20 6 19
25 -1 25 -6 0 -8 -4 -5 -9 3 -5 -2 -12 -11 -16 -10 -3 -19 -1 -21 4 -2 6 -10
11 -18 11 -8 0 -23 9 -34 20 -11 11 -20 16 -20 10 0 -5 -5 -10 -11 -10 -5 0
-8 4 -5 9 3 5 -11 11 -32 13 -46 6 -56 0 -14 -8 17 -4 37 -13 43 -20 20 -24
-46 -17 -101 11 -28 14 -50 27 -50 30 0 2 10 13 21 24 21 19 21 21 5 55 -9 19
-32 49 -51 67 -19 18 -32 36 -30 40 3 4 -6 6 -20 5 -14 0 -25 -5 -25 -9z"/>
<path d="M375 1086 c-92 -22 -108 -38 -175 -172 -59 -120 -60 -124 -44 -149
11 -17 23 -23 38 -20 11 2 35 -2 51 -9 l30 -14 -32 1 c-18 0 -33 4 -33 9 0 4
-4 8 -10 8 -5 0 -10 -9 -10 -20 0 -17 7 -20 45 -20 38 0 44 -3 39 -17 -4 -12
1 -9 15 7 11 14 21 27 21 30 0 3 -31 18 -69 33 -70 29 -70 29 -65 64 5 40 21
75 40 86 8 4 14 15 14 23 0 8 3 13 8 11 4 -3 8 6 8 19 3 41 50 92 97 105 95
25 132 38 107 38 -14 -1 -48 -6 -75 -13z"/>
<path d="M1756 1067 c-14 -19 -26 -41 -26 -51 0 -9 -8 -19 -17 -23 -10 -3 -48
-26 -85 -50 -74 -49 -97 -51 -115 -12 -10 21 -18 25 -38 21 -19 -3 -25 -11
-25 -29 0 -21 3 -23 14 -14 10 9 16 9 21 1 4 -6 13 -9 21 -6 9 3 14 -1 14 -13
0 -13 10 -21 34 -25 77 -15 135 -37 161 -63 35 -36 59 -72 52 -79 -3 -3 -32 3
-64 14 -32 11 -96 25 -143 31 -174 24 -162 25 -129 -20 22 -31 39 -38 39 -15
0 8 4 17 10 21 13 8 140 -15 140 -26 0 -11 -34 -12 -44 -2 -3 4 -14 8 -24 9
-13 2 -12 -2 7 -17 25 -20 76 -25 127 -10 51 14 90 -9 104 -61 7 -24 16 -48
22 -55 11 -13 3 -33 -14 -33 -6 0 -19 10 -30 23 -18 20 -28 22 -131 22 -111 0
-113 0 -160 34 -29 19 -55 47 -63 66 -14 34 -34 55 -34 35 0 -6 11 -28 24 -49
26 -41 65 -73 112 -92 35 -15 164 -27 164 -17 0 5 9 8 20 8 11 0 20 -4 20 -10
0 -5 -4 -10 -10 -10 -5 0 -10 -4 -10 -10 0 -19 19 -10 26 12 6 21 7 21 21 2 8
-10 26 -41 39 -69 28 -56 63 -97 75 -89 11 7 0 35 -24 58 -15 15 -16 20 -5 27
10 7 9 9 -4 9 -12 0 -18 8 -18 25 0 29 8 32 26 8 28 -37 15 38 -19 111 -19 39
-41 90 -51 112 -19 44 -55 68 -157 102 l-52 18 93 53 c107 62 123 61 168 -15
33 -57 51 -76 63 -68 5 3 -3 22 -19 42 -34 43 -47 73 -29 66 18 -7 102 -124
117 -162 7 -18 21 -37 31 -43 26 -13 24 -2 -6 37 -14 18 -25 36 -25 41 0 4
-20 33 -45 63 -25 30 -43 61 -40 68 2 7 -3 12 -14 12 -27 0 -81 30 -81 45 0 7
7 18 15 25 8 7 15 18 15 26 0 27 -20 23 -44 -9z"/>
<path d="M790 1020 c-25 -8 -24 -8 5 -9 23 -1 27 -3 15 -11 -13 -8 -12 -10 3
-10 18 0 19 -20 2 -32 -5 -4 0 -8 12 -8 13 0 21 5 19 13 -3 6 -7 24 -10 40 -7
29 -8 29 -46 17z"/>
<path d="M358 1012 c-11 -4 -14 -12 -9 -20 6 -9 13 -8 31 8 23 20 13 26 -22
12z"/>
<path d="M1561 1003 c-19 -16 -21 -21 -9 -25 21 -8 41 6 36 27 -3 16 -5 16
-27 -2z"/>
<path d="M1898 993 c-35 -9 -18 -29 20 -24 7 1 37 -9 67 -24 39 -18 53 -30 49
-40 -8 -21 -20 -19 -57 9 -18 12 -39 27 -47 31 -13 8 -13 7 0 -11 37 -50 55
-64 82 -64 18 0 41 -12 66 -35 28 -26 33 -35 19 -35 -10 0 -28 9 -40 21 -12
11 -30 25 -40 31 -18 9 -18 8 1 -19 10 -15 27 -40 36 -55 11 -19 25 -28 42
-28 37 0 121 -46 127 -70 4 -17 9 -19 32 -10 33 12 75 13 75 1 0 -5 -34 -23
-75 -41 -41 -19 -72 -37 -69 -41 2 -5 11 -6 19 -2 18 6 19 -3 3 -21 -10 -10
-15 -9 -29 8 -10 12 -20 18 -24 14 -9 -8 23 -68 36 -68 16 0 94 48 115 71 25
28 139 79 177 79 9 0 17 5 17 11 0 8 -17 10 -57 4 -76 -10 -91 -9 -128 9 -16
8 -50 20 -74 26 -27 7 -56 24 -73 43 -16 18 -47 51 -69 74 -36 36 -40 45 -34
72 6 26 4 31 -13 31 -11 0 -35 6 -53 14 -19 7 -43 17 -54 21 -19 7 -19 8 5 15
24 8 24 8 -5 8 -16 0 -38 -2 -47 -5z m462 -337 c0 -7 -112 -86 -122 -86 -20 0
-5 22 25 35 17 8 43 23 57 35 24 19 40 25 40 16z"/>
<path d="M390 965 c7 -8 10 -24 7 -36 -8 -31 13 -18 29 19 l13 32 -31 0 c-26
0 -29 -2 -18 -15z"/>
<path d="M2295 961 c-3 -9 -27 -40 -55 -69 -35 -37 -50 -61 -50 -80 0 -30 -7
-29 98 -24 18 1 31 6 28 10 -3 5 -19 7 -35 4 -46 -6 -49 19 -9 69 73 93 86
102 119 76 16 -13 93 -111 123 -159 19 -30 111 -82 128 -72 5 3 -8 17 -29 31
-37 24 -163 146 -163 157 0 14 36 4 59 -16 l25 -23 -15 25 c-36 57 -211 112
-224 71z"/>
<path d="M1406 925 c-21 -31 -20 -35 4 -35 16 0 20 7 20 30 0 36 -3 37 -24 5z"/>
<path d="M2675 913 c4 -10 18 -52 32 -93 13 -41 31 -86 39 -98 9 -13 13 -27 9
-30 -4 -4 -11 1 -17 11 -9 18 -11 17 -31 -4 -12 -13 -21 -27 -20 -30 1 -4 -4
-13 -12 -19 -12 -10 -15 -9 -15 4 0 21 -13 20 -31 -1 -23 -29 -10 -93 18 -93
13 0 12 5 -7 25 -21 22 -22 25 -5 25 10 0 15 -3 12 -7 -4 -3 1 -15 10 -25 13
-15 14 -21 4 -27 -7 -5 -11 -23 -9 -46 3 -32 -1 -39 -22 -47 -13 -5 -21 -6
-17 -2 9 10 -22 44 -41 44 -10 0 -7 -10 12 -35 26 -33 26 -36 10 -60 -17 -25
-34 -25 -34 1 0 8 -5 14 -11 14 -7 0 -9 -10 -5 -26 7 -26 6 -27 -30 -21 -24 4
-46 16 -59 33 l-21 27 -29 -27 c-33 -31 -38 -31 -70 -10 -23 15 -25 15 -25 0
0 -41 -158 14 -193 67 -13 21 -130 107 -144 107 -13 0 186 -184 210 -195 27
-11 26 -12 -39 -18 -50 -5 -75 -3 -97 8 -17 8 -35 15 -40 15 -5 0 -32 13 -59
30 -26 16 -52 30 -57 30 -4 0 -8 -13 -9 -29 0 -20 4 -28 12 -25 6 2 31 -2 55
-11 24 -8 54 -15 68 -15 21 0 24 -4 21 -27 -4 -33 -32 -42 -57 -19 -14 13 -24
14 -44 7 -18 -7 -30 -6 -43 4 -12 8 -25 10 -35 4 -25 -13 -110 -7 -104 9 2 6
0 12 -4 12 -5 0 -11 -6 -14 -12 -3 -10 -11 -10 -41 0 -20 7 -64 12 -99 11
l-62 -3 -6 43 c-3 23 -2 44 3 47 4 3 8 13 8 22 0 14 -4 13 -22 -6 -19 -19 -21
-25 -10 -42 6 -11 12 -27 12 -36 0 -12 -7 -10 -31 11 -17 14 -34 23 -37 20 -3
-3 4 -12 16 -21 30 -21 28 -41 -8 -59 -17 -9 -30 -11 -30 -5 0 5 12 13 27 16
25 7 25 8 8 20 -13 10 -21 11 -26 3 -9 -15 -256 -68 -267 -57 -5 5 -51 11
-103 13 -153 8 -184 14 -194 38 -8 17 -5 26 13 44 27 27 52 29 93 7 17 -8 38
-14 47 -12 13 3 8 9 -16 21 -37 20 -38 24 -15 49 12 14 -1 10 -53 -13 -106
-48 -151 -59 -252 -59 -71 0 -93 3 -89 13 2 6 10 12 18 13 8 1 29 8 47 16 l33
14 -26 12 c-21 10 -30 8 -62 -14 -91 -62 -175 -96 -316 -129 -26 -6 -21 7 21
48 41 40 55 46 195 78 72 16 97 26 93 36 -3 7 4 22 15 32 23 20 33 30 83 82
17 19 52 48 78 66 40 27 49 39 54 72 4 23 10 38 15 35 5 -3 6 2 3 11 -11 27
-39 13 -37 -18 1 -15 -2 -27 -8 -27 -6 0 -8 -4 -4 -9 3 -5 -3 -12 -14 -16 -22
-7 -157 -150 -193 -205 -27 -40 -54 -48 -208 -56 -114 -6 -143 -11 -135 -25 5
-7 12 -6 21 2 11 9 14 7 14 -9 0 -31 -21 -72 -37 -72 -10 0 -8 -6 6 -21 24
-25 39 -24 226 21 85 20 152 30 232 32 l112 3 8 -34 c9 -35 9 -35 88 -48 44
-7 98 -12 120 -11 22 0 65 -4 95 -11 43 -9 73 -8 145 3 49 8 106 17 125 19 19
3 77 12 128 20 84 14 96 14 130 0 25 -11 79 -17 167 -20 78 -3 145 -10 168
-19 46 -17 43 -18 64 5 10 10 27 21 38 23 11 2 19 10 18 16 -2 8 12 12 40 12
23 0 67 7 97 15 31 8 71 12 92 9 20 -4 51 -1 69 5 26 9 37 8 55 -4 13 -8 46
-15 75 -15 43 0 50 2 40 14 -10 11 -8 16 8 21 12 3 21 14 21 24 0 11 12 24 29
30 15 7 34 22 40 35 15 27 9 125 -8 135 -23 15 0 39 44 46 42 6 45 9 56 48 25
90 6 165 -53 207 -47 34 -63 38 -53 13z"/>
<path d="M1366 885 c-11 -29 -7 -55 9 -55 16 0 20 36 6 58 -7 11 -10 10 -15
-3z"/>
<path d="M2550 886 c0 -7 7 -19 15 -26 13 -10 18 -11 28 -1 9 10 8 15 -7 27
-25 18 -36 18 -36 0z"/>
<path d="M1652 885 c16 -16 78 -53 78 -46 0 13 -33 38 -58 44 -13 3 -22 4 -20
2z"/>
<path d="M1455 865 l-50 -13 58 -1 c31 0 57 3 57 8 0 17 -14 18 -65 6z"/>
<path d="M524 768 c-35 -31 -58 -48 -65 -48 -4 0 -11 -9 -14 -20 -4 -11 -11
-18 -16 -15 -5 4 -9 0 -9 -8 0 -8 -11 -22 -24 -33 -14 -10 -23 -21 -20 -26 3
-4 -3 -5 -12 -1 -10 4 -15 2 -11 -3 6 -10 -14 -14 -69 -14 -17 0 -37 -6 -44
-15 -11 -13 -9 -15 11 -14 13 0 36 -3 51 -7 32 -7 81 3 73 15 -6 11 23 23 36
16 5 -4 6 2 2 11 -5 14 -3 16 11 11 10 -4 15 -3 11 3 -3 6 -1 10 5 10 6 0 8 5
5 10 -3 6 -2 10 4 10 5 0 13 9 16 20 4 11 11 18 16 15 5 -4 9 -2 9 3 0 5 9 19
20 32 11 13 20 19 20 15 0 -4 9 2 20 15 11 13 20 24 20 24 0 6 -38 0 -46 -6z"/>
<path d="M918 703 c-14 -16 -40 -43 -57 -61 -17 -19 -31 -41 -31 -51 0 -9 -4
-21 -9 -26 -5 -6 -5 -19 -1 -30 9 -20 9 -20 10 0 1 34 36 98 80 148 44 50 51
66 8 20z"/>
<path d="M2000 721 c0 -4 9 -20 20 -34 21 -27 26 -42 10 -32 -6 3 -7 -1 -4 -9
7 -19 9 -19 34 -6 16 9 18 8 13 -6 -4 -11 -2 -15 7 -12 24 8 23 28 -2 37 -13
6 -17 10 -8 11 10 0 2 12 -20 30 -35 31 -50 37 -50 21z"/>
<path d="M1910 697 c0 -8 9 -22 19 -31 27 -24 37 -2 11 24 -23 23 -30 25 -30
7z"/>
<path d="M1090 658 c29 -40 38 -68 22 -68 -4 0 -9 -18 -10 -40 -2 -30 1 -40
13 -40 10 0 15 10 15 30 0 17 14 57 30 90 17 33 26 60 20 60 -5 0 -10 -6 -10
-14 0 -26 -30 -27 -42 -1 -8 18 -14 22 -24 14 -8 -7 -14 -7 -19 1 -3 5 -10 10
-16 10 -5 0 4 -19 21 -42z"/>
<path d="M2557 664 c3 -8 12 -13 20 -10 8 3 22 6 31 7 10 1 7 4 -8 9 -40 13
-50 11 -43 -6z"/>
<path d="M933 647 c1 -7 -5 -12 -14 -12 -9 0 -27 -8 -40 -17 -22 -15 -23 -17
-5 -24 10 -4 27 -2 37 4 10 7 21 12 24 12 13 0 3 -53 -17 -95 -27 -56 -16 -69
23 -27 48 51 71 44 106 -30 13 -27 28 -48 34 -48 14 0 0 43 -17 53 -8 4 -14
17 -14 27 0 22 16 27 23 8 4 -8 6 -7 6 4 1 13 -13 18 -61 25 l-63 8 0 57 c0
37 -4 59 -12 62 -7 3 -12 0 -10 -7z"/>
<path d="M1000 645 c-7 -8 -10 -15 -6 -15 3 0 -3 -16 -14 -35 -23 -40 -21 -42
10 -15 12 11 24 33 25 50 3 34 2 35 -15 15z"/>
<path d="M1950 616 c0 -21 78 -50 96 -35 12 10 5 15 -38 30 -29 10 -54 18 -55
19 -2 0 -3 -6 -3 -14z"/>
<path d="M2549 580 c-6 -64 -5 -67 16 -50 17 14 21 35 5 25 -16 -10 -12 21 5
35 8 7 15 17 15 22 0 6 -6 6 -14 -1 -11 -10 -15 -8 -18 6 -3 10 -7 -7 -9 -37z"/>
<path d="M2093 613 c-7 -3 -13 -11 -13 -19 0 -8 -7 -17 -15 -20 -18 -7 -10
-24 10 -24 8 0 18 12 21 26 5 19 9 22 15 12 5 -7 9 -8 9 -3 0 18 -15 32 -27
28z"/>
<path d="M2365 575 c-39 -13 -38 -13 31 -8 57 5 77 2 95 -11 13 -9 30 -16 38
-16 24 0 -7 25 -48 39 -42 14 -65 13 -116 -4z"/>
<path d="M1406 545 c42 -22 50 -23 60 -10 9 13 13 13 30 0 19 -14 19 -14 -1
-9 -16 4 -24 -4 -38 -37 -23 -54 -16 -59 20 -15 35 44 61 46 134 8 50 -26 89
-32 89 -12 0 4 -8 6 -19 3 -10 -3 -42 9 -72 27 l-54 31 35 -2 c21 -2 46 -13
63 -28 20 -19 26 -21 22 -8 -4 9 -11 17 -16 17 -5 0 -9 5 -9 11 0 6 7 9 15 5
8 -3 15 -1 15 4 0 21 -100 27 -127 7 -7 -5 -21 -2 -38 9 -18 11 -37 15 -65 11
-22 -3 -43 -1 -46 4 -3 5 -15 9 -26 9 -14 0 -5 -8 28 -25z"/>
<path d="M207 500 c-21 -75 -21 -80 1 -79 9 0 12 3 5 5 -8 4 -9 13 -3 29 5 12
6 26 3 29 -4 3 -1 6 6 6 7 0 9 5 6 10 -3 6 -1 10 5 10 6 0 8 5 5 10 -3 6 -2
10 4 10 6 0 8 7 5 15 -11 27 -21 16 -37 -45z"/>
<path d="M2105 551 c-3 -5 8 -16 24 -24 l30 -15 -16 24 c-16 25 -28 30 -38 15z"/>
<path d="M2285 524 l-40 -12 44 -1 c25 -1 52 -7 60 -15 13 -12 20 -12 40 -2
19 11 21 14 7 19 -9 4 -16 2 -16 -3 0 -6 -8 -5 -19 2 -11 7 -18 15 -16 18 6
10 -17 8 -60 -6z"/>
<path d="M1710 513 c0 -32 10 -53 26 -53 17 0 19 -41 2 -58 -15 -15 -3 -16 21
0 16 9 23 7 45 -15 15 -15 30 -27 33 -27 6 0 -5 14 -50 65 -10 11 -32 40 -48
64 -22 34 -29 39 -29 24z"/>
<path d="M1874 508 c-3 -4 5 -8 18 -8 13 -1 39 -14 58 -30 19 -17 40 -30 47
-30 7 0 13 -4 13 -10 0 -5 8 -10 18 -9 13 0 12 3 -8 17 -14 9 -36 28 -50 42
-14 14 -21 22 -16 18 17 -13 29 -9 17 6 -12 15 -89 18 -97 4z"/>
<path d="M2280 471 c-18 -26 -19 -31 -5 -31 8 0 20 12 26 26 14 38 5 40 -21 5z"/>
<path d="M1355 455 c3 -25 0 -38 -10 -42 -23 -8 -18 -20 13 -27 15 -3 38 -8
52 -11 21 -5 22 -5 8 5 -22 14 -23 30 -2 30 8 0 12 5 9 10 -5 8 -11 7 -20 0
-20 -17 -35 -3 -35 30 0 16 -5 32 -10 35 -6 4 -8 -7 -5 -30z"/>
<path d="M798 453 c-49 -4 -58 -12 -35 -31 8 -7 18 -6 31 4 11 8 35 14 53 14
18 0 33 5 33 10 0 6 -8 9 -17 8 -10 -1 -39 -3 -65 -5z"/>
<path d="M1169 423 c-13 -35 -12 -37 18 -14 15 13 34 19 45 16 10 -4 18 -2 18
4 0 12 -3 13 -43 16 -22 2 -31 -4 -38 -22z"/>
<path d="M1927 344 c3 -9 15 -11 34 -7 18 3 29 1 29 -6 0 -6 8 -11 17 -11 15
0 15 2 3 15 -20 19 -90 27 -83 9z"/>
</g>
</svg>
