<?xml version="1.0" standalone="no"?>
<!DOCTYPE svg PUBLIC "-//W3C//DTD SVG 20010904//EN"
 "http://www.w3.org/TR/2001/REC-SVG-20010904/DTD/svg10.dtd">
<svg version="1.0" xmlns="http://www.w3.org/2000/svg"
 width="156.000000pt" height="268.000000pt" viewBox="0 0 156.000000 268.000000"
 preserveAspectRatio="xMidYMid meet">
<metadata>
Created by potrace 1.10, written by Peter Selinger 2001-2011
</metadata>
<g transform="translate(0.000000,268.000000) scale(0.100000,-0.100000)"
fill="#000000" stroke="none">
<path d="M710 1848 l0 -823 -33 -15 c-19 -9 -33 -24 -35 -36 -2 -15 -15 -25
-45 -34 -125 -36 -263 -150 -324 -265 -51 -97 -81 -243 -68 -335 l7 -50 546 2
547 3 -1 110 c-1 97 -4 119 -29 180 -37 92 -91 170 -159 233 -56 50 -182 122
-216 122 -11 0 -20 10 -24 26 -4 14 -20 33 -36 42 l-30 17 2 823 c3 816 3 822
-17 822 -20 0 -20 -6 -18 -332 1 -197 -2 -325 -7 -313 -5 12 -9 -69 -9 -207
-1 -145 -5 -228 -11 -228 -7 0 -10 187 -10 540 0 473 -2 540 -15 540 -13 0
-15 -98 -15 -822z m56 -382 c17 -17 20 -201 4 -211 -5 -3 -10 -33 -10 -65 0
-32 -4 -61 -9 -64 -4 -3 -8 75 -7 174 1 99 2 180 4 180 2 0 10 -6 18 -14z m9
-454 c-11 -11 -25 43 -19 71 8 31 8 31 15 -18 5 -27 6 -51 4 -53z m42 -101
c10 -10 29 -22 43 -26 36 -10 157 -82 208 -122 23 -19 42 -30 42 -25 0 19 -90
89 -161 127 -39 20 -68 39 -65 42 3 3 40 -11 82 -31 105 -50 197 -143 253
-257 46 -94 81 -252 51 -234 -5 3 -10 21 -10 38 0 18 -6 55 -14 82 -13 52 -54
140 -61 133 -2 -2 10 -46 26 -98 28 -84 52 -234 35 -219 -3 3 -13 43 -22 90
-8 46 -20 89 -26 94 -7 7 -8 1 -4 -20 19 -101 27 -158 22 -163 -10 -10 -18 5
-23 47 -7 54 -22 53 -20 -1 2 -40 0 -43 -26 -46 -23 -3 -30 2 -42 32 -20 46
-28 46 -19 0 5 -27 4 -35 -5 -30 -6 4 -11 15 -11 24 0 21 -35 157 -49 196 -24
60 -22 14 3 -85 28 -108 31 -139 17 -139 -5 0 -11 22 -15 50 -9 66 -24 72 -22
8 1 -33 -3 -52 -11 -55 -8 -3 -13 5 -13 21 0 32 -17 35 -22 4 l-3 -23 -215 0
-215 0 3 75 c3 94 -16 84 -25 -13 l-6 -67 -69 0 c-52 0 -70 4 -74 15 -8 19
-24 19 -24 0 0 -28 -17 -15 -25 18 l-8 32 -7 -35 c-8 -41 -15 -28 -25 45 -4
28 -11 52 -15 55 -5 3 -5 25 0 50 32 171 163 332 318 390 114 43 220 52 249
21z m-570 -563 c-2 -18 -4 -6 -4 27 0 33 2 48 4 33 2 -15 2 -42 0 -60z"/>
<path d="M1030 762 c0 -5 14 -21 31 -38 17 -16 46 -51 65 -79 42 -61 45 -39 4
32 -33 57 -100 114 -100 85z"/>
</g>
</svg>
