<?xml version="1.0" standalone="no"?>
<!DOCTYPE svg PUBLIC "-//W3C//DTD SVG 20010904//EN"
 "http://www.w3.org/TR/2001/REC-SVG-20010904/DTD/svg10.dtd">
<svg version="1.0" xmlns="http://www.w3.org/2000/svg"
 width="300.000000pt" height="233.000000pt" viewBox="0 0 300.000000 233.000000"
 preserveAspectRatio="xMidYMid meet">
<metadata>
Created by potrace 1.10, written by Peter Selinger 2001-2011
</metadata>
<g transform="translate(0.000000,233.000000) scale(0.100000,-0.100000)"
fill="#000000" stroke="none">
<path d="M355 2275 c-49 -19 -106 -38 -125 -41 -63 -12 -144 -44 -167 -66 -12
-12 -26 -37 -29 -57 -4 -20 -10 -41 -15 -46 -20 -26 2 -295 37 -460 8 -38 30
-289 49 -556 19 -267 37 -494 41 -503 16 -43 48 -46 361 -45 286 2 298 1 300
-17 15 -142 12 -135 66 -188 84 -82 103 -121 71 -146 -9 -8 -14 -25 -12 -43 4
-38 16 -42 193 -63 131 -16 534 -22 574 -9 16 5 21 15 21 42 0 35 1 35 33 29
17 -4 70 -9 117 -12 47 -3 118 -12 157 -21 98 -21 156 -12 199 31 139 139 -69
336 -397 377 -52 6 -95 13 -97 14 -1 1 0 10 4 19 6 15 54 16 544 16 l538 0 31
26 c17 14 33 39 36 57 3 18 16 165 29 327 l23 295 34 48 c32 46 33 49 18 75
-13 24 -22 28 -79 32 l-65 5 -2 33 c-3 38 -3 23 2 202 3 114 0 150 -11 168
l-14 22 -509 0 c-490 0 -509 -1 -525 -19 -14 -15 -17 -33 -14 -70 l3 -51 -252
-3 c-248 -2 -252 -2 -248 18 10 40 25 201 25 258 0 33 -6 71 -14 85 -7 15 -17
41 -22 57 -7 22 -21 36 -53 51 -24 12 -50 30 -58 39 -20 29 -66 55 -95 55 -15
0 -82 14 -150 30 -132 32 -213 38 -242 17 -16 -12 -29 -11 -85 5 -91 25 -122
23 -226 -17z m230 -12 c33 -8 81 -28 106 -44 25 -16 48 -29 52 -29 3 0 27 -10
54 -21 l48 -21 -37 -18 c-34 -15 -48 -15 -140 -4 -57 7 -123 13 -148 14 l-45
1 23 19 c37 31 81 34 148 10 90 -32 94 -33 94 -23 0 6 -28 23 -61 38 -83 37
-152 33 -207 -13 -67 -58 -106 -72 -215 -82 -56 -5 -125 -9 -154 -10 -45 0
-52 2 -47 18 20 62 38 73 179 111 39 10 108 33 155 50 52 18 94 28 110 25 14
-4 52 -13 85 -21z m270 -9 c61 -14 139 -29 175 -35 58 -8 69 -13 100 -49 20
-22 44 -40 53 -40 31 0 57 -20 57 -43 l0 -22 -19 24 c-11 14 -21 19 -25 13 -3
-5 -24 -12 -45 -14 -39 -3 -39 -3 -34 24 7 33 -14 88 -33 88 -18 0 -18 -5 1
-34 24 -36 10 -76 -25 -76 -23 0 -27 4 -28 31 -2 74 -49 96 -128 60 l-42 -19
-86 43 c-101 50 -105 53 -86 65 22 14 45 12 165 -16z m139 -90 c18 -17 22 -64
6 -64 -5 0 -10 11 -10 25 0 14 -4 25 -10 25 -5 0 -10 -9 -10 -20 0 -17 -7 -20
-51 -20 -54 0 -112 -26 -123 -55 -4 -12 -30 -15 -137 -15 -117 0 -134 2 -157
21 -18 13 -37 19 -61 17 -42 -4 -54 18 -14 29 36 10 102 8 238 -7 l110 -13 75
38 c41 21 86 41 100 46 14 4 26 8 27 8 1 1 9 -6 17 -15z m-24 -85 c25 -5 95
-13 157 -17 66 -5 118 -13 127 -21 12 -10 16 -33 16 -100 0 -114 -19 -262 -35
-281 -9 -10 -14 -43 -14 -99 0 -46 -2 -86 -5 -88 -5 -5 -62 29 -122 71 -11 8
-35 41 -52 75 -27 49 -36 85 -53 198 -11 76 -27 153 -37 173 -16 34 -20 35
-81 40 -59 5 -62 6 -45 21 47 40 69 45 144 28z m-566 -28 c17 -19 17 -20 -11
-23 -27 -3 -30 -9 -85 -178 -31 -96 -66 -207 -77 -245 -19 -66 -49 -115 -71
-115 -25 0 -61 49 -75 104 -30 120 -59 442 -40 454 5 4 62 10 125 13 216 11
215 11 234 -10z m446 -40 c60 -5 75 -9 78 -23 3 -17 -15 -18 -278 -18 -274 0
-280 0 -270 19 5 11 22 22 37 24 43 6 349 5 433 -2z m100 -103 c0 -7 3 -23 6
-35 l6 -23 -315 0 -315 0 11 35 10 35 299 0 c232 0 298 -3 298 -12z m-317 -85
c-56 -2 -151 -2 -210 0 -59 1 -14 3 102 3 116 0 164 -2 108 -3z m285 0 c-27
-2 -69 -2 -95 0 -27 2 -5 3 47 3 52 0 74 -1 48 -3z m1890 -35 c7 -7 12 -26 12
-42 l0 -31 -510 0 -510 0 0 37 c0 20 6 39 13 41 6 3 230 6 497 6 366 1 489 -2
498 -11z m-1838 -20 c0 -13 3 -33 6 -45 l6 -23 -346 0 c-190 0 -346 3 -346 6
0 4 5 24 12 45 l11 39 329 0 328 0 0 -22z m1848 -120 l3 -38 -325 0 c-307 0
-326 1 -326 18 0 38 -18 42 -198 42 -114 0 -171 3 -167 10 4 7 179 9 508 8
l502 -3 3 -37z m-2241 25 c-31 -2 -83 -2 -115 0 -31 2 -5 3 58 3 63 0 89 -1
57 -3z m346 0 c-40 -2 -106 -2 -145 0 -40 1 -8 3 72 3 80 0 112 -2 73 -3z m88
-50 c7 -16 15 -31 17 -34 1 -4 -16 -1 -39 5 -37 10 -43 9 -59 -12 -18 -22 -19
-22 -353 -22 l-334 0 15 45 14 45 363 0 362 0 14 -27z m1127 -10 l3 -33 -450
0 c-438 0 -451 1 -451 19 0 54 -24 51 454 49 l441 -3 3 -32z m670 -38 c9 -3
12 -18 10 -42 l-3 -38 -321 -3 -322 -2 -4 37 c-3 21 -3 43 -1 48 3 10 614 10
641 0z m-1831 -18 c-36 -94 -82 -335 -94 -498 -10 -129 -10 -603 0 -684 l8
-60 -21 21 c-33 32 -43 139 -37 369 9 307 49 641 98 828 7 28 15 37 30 37 13
0 19 -5 16 -13z m1161 -34 l3 -33 -450 0 -451 0 0 23 c0 48 -3 47 460 45 l435
-3 3 -32z m-1363 3 c11 -2 -18 -4 -65 -4 -47 0 -77 3 -68 6 16 7 86 5 133 -2z
m282 3 c7 -7 7 -23 -3 -55 -43 -144 -69 -624 -44 -824 28 -232 22 -360 -19
-412 -18 -21 -19 -21 -28 -2 -41 81 -53 643 -19 909 24 190 44 291 68 348 21
49 27 54 45 36z m-664 -6 c-29 -2 -78 -2 -110 0 -32 2 -8 3 52 3 61 0 87 -1
58 -3z m174 0 c-20 -2 -52 -2 -70 0 -17 2 0 4 38 4 39 0 53 -2 32 -4z m623
-73 c23 -18 24 -19 7 -38 -9 -10 -17 -28 -17 -39 0 -51 98 -140 178 -163 20
-5 61 -10 90 -10 44 0 57 4 77 26 31 33 32 22 3 -19 -16 -22 -24 -50 -26 -93
-5 -75 10 -127 43 -148 63 -41 82 -138 55 -281 l-19 -100 6 87 6 88 -37 33
c-19 18 -62 45 -93 59 -224 102 -238 105 -277 63 -54 -58 -74 -260 -49 -485
16 -139 18 -146 66 -166 54 -22 194 -28 272 -12 l60 13 16 115 16 115 2 -100
c2 -112 24 -183 61 -192 30 -8 20 -37 -15 -44 -40 -9 -453 -11 -548 -3 -87 8
-99 20 -62 60 48 52 62 163 41 339 -25 214 -29 359 -16 540 11 157 42 384 56
406 6 10 58 -16 104 -51z m-303 5 l-10 -45 -357 0 c-294 0 -360 -2 -369 -14
-9 -11 -8 -18 4 -30 14 -14 56 -15 366 -12 l350 4 -6 -36 c-4 -21 -8 -43 -10
-49 -3 -10 -80 -13 -339 -13 -258 0 -335 -3 -339 -12 -12 -37 -3 -38 340 -38
l335 0 -6 -22 c-3 -13 -6 -33 -6 -45 l0 -23 -327 -2 -328 -3 0 -25 0 -25 323
-3 322 -2 0 -23 c0 -12 -3 -32 -6 -44 l-6 -23 -312 -2 -311 -3 -3 -22 c-2 -14
2 -23 10 -23 7 0 150 0 317 0 l304 1 -7 -38 c-3 -21 -6 -44 -6 -51 0 -10 -62
-12 -297 -11 -164 1 -304 1 -311 0 -8 -1 -12 -10 -10 -23 l3 -23 308 -3 307
-2 0 -45 0 -45 -299 0 c-191 0 -302 -4 -306 -10 -3 -6 -3 -19 0 -30 6 -19 16
-20 303 -20 l297 0 0 -45 1 -45 -308 0 -308 0 -13 23 c-10 15 -22 140 -41 422
-15 220 -30 426 -33 459 -6 57 -6 58 15 47 29 -16 67 -14 82 4 11 13 63 15
355 15 l342 0 -10 -45z m829 5 l424 0 0 -35 0 -35 -56 0 c-30 0 -65 6 -77 12
-15 9 -82 13 -217 14 -107 1 -247 4 -312 9 -107 6 -118 5 -136 -13 -19 -19
-19 -19 -61 6 -34 20 -39 27 -30 39 7 7 19 11 26 8 8 -3 206 -5 439 -5z m1102
-37 l3 -33 -324 0 -325 0 -4 35 -4 35 325 -2 326 -3 3 -32z m-1560 -31 c15
-11 57 -36 94 -56 56 -31 66 -41 59 -55 -6 -10 -5 -23 1 -35 5 -9 8 -19 6 -21
-2 -2 -30 7 -62 20 -89 36 -164 118 -141 154 8 15 13 14 43 -7z m720 -8 c9 -2
12 -61 12 -248 l0 -244 -22 -6 c-13 -3 -44 -6 -70 -6 -53 0 -54 1 -39 79 8 39
6 47 -15 68 -19 19 -31 23 -52 18 -26 -5 -28 -3 -39 44 -6 27 -19 61 -28 74
-9 15 -83 59 -183 112 -174 91 -192 102 -192 116 0 8 600 2 628 -7z m-1625 -1
c-35 -2 -91 -2 -125 0 -35 2 -7 3 62 3 69 0 97 -1 63 -3z m184 0 c-20 -2 -52
-2 -70 0 -17 2 0 4 38 4 39 0 53 -2 32 -4z m296 0 c-24 -2 -62 -2 -85 0 -24 2
-5 4 42 4 47 0 66 -2 43 -4z m2135 -42 c2 -13 -2 -28 -10 -32 -7 -5 -221 -9
-475 -9 l-463 0 0 35 0 35 473 -2 472 -3 3 -24z m-2043 -156 c-12 -82 -13 -87
-9 -30 6 84 16 154 21 140 1 -6 -4 -55 -12 -110z m548 93 c6 -19 -3 -38 -18
-38 -18 0 -28 17 -21 35 7 18 33 20 39 3z m1462 -8 c-4 -6 -168 -10 -461 -10
-296 0 -454 3 -454 10 0 7 160 10 461 10 304 0 458 -3 454 -10z m-2522 -37
c-18 -2 -48 -2 -65 0 -18 2 -4 4 32 4 36 0 50 -2 33 -4z m400 0 c-23 -2 -64
-2 -90 0 -26 2 -7 3 42 3 50 0 71 -1 48 -3z m2093 -60 c-3 -38 -13 -158 -21
-268 -25 -329 -24 -324 -79 -345 -18 -6 -212 -10 -548 -10 l-520 0 6 23 c3 12
6 37 6 55 0 27 4 32 23 32 36 0 47 19 47 81 0 72 16 119 41 119 16 0 19 -10
21 -91 2 -75 6 -94 21 -103 12 -8 22 -8 35 0 14 9 18 28 20 100 l3 90 31 12
31 11 -6 114 c-3 68 -1 119 5 128 6 9 7 -63 3 -212 -7 -245 -5 -255 47 -247
l23 3 3 266 c2 234 0 268 -14 280 -21 18 -48 0 -52 -35 -6 -45 -17 -29 -14 19
l4 45 445 0 445 0 -6 -67z m-1201 -27 c17 -26 47 -155 39 -168 -3 -4 -13 -8
-24 -8 -26 0 -30 -19 -30 -130 0 -73 4 -101 15 -110 8 -6 19 -8 26 -4 9 5 10
-2 6 -27 -3 -19 -11 -72 -18 -119 -6 -47 -16 -91 -22 -98 -5 -7 -11 -36 -12
-65 -2 -65 -26 -197 -35 -197 -15 0 -38 37 -49 75 -17 64 -13 172 14 331 14
81 25 168 25 193 0 57 -28 120 -73 165 -54 54 -59 150 -12 222 l15 24 60 -30
c33 -17 67 -41 75 -54z m375 0 c0 -21 -6 -36 -15 -40 -12 -4 -15 3 -15 34 0
29 4 40 15 40 10 0 15 -10 15 -34z m-1460 -56 c0 -6 -60 -10 -160 -10 -100 0
-160 4 -160 10 0 6 60 10 160 10 100 0 160 -4 160 -10z m210 0 c0 -6 -37 -10
-90 -10 -53 0 -90 4 -90 10 0 6 37 10 90 10 53 0 90 -4 90 -10z m1250 -40 c0
-20 -5 -30 -15 -30 -10 0 -15 10 -15 30 0 20 5 30 15 30 10 0 15 -10 15 -30z
m-242 -67 l3 -31 -35 16 c-47 23 -50 55 -3 50 28 -3 32 -7 35 -35z m242 -18
c0 -24 -5 -35 -15 -35 -10 0 -15 11 -15 35 0 24 5 35 15 35 10 0 15 -11 15
-35z m-1772 -22 c-15 -2 -42 -2 -60 0 -18 2 -6 4 27 4 33 0 48 -2 33 -4z m160
0 c-21 -2 -57 -2 -80 0 -24 2 -7 4 37 4 44 0 63 -2 43 -4z m185 0 c-24 -2 -62
-2 -85 0 -24 2 -5 4 42 4 47 0 66 -2 43 -4z m1157 -10 c0 -30 -22 -148 -32
-165 -5 -10 -20 -18 -33 -18 -25 0 -25 0 -25 100 l0 100 45 0 c35 0 45 -4 45
-17z m-515 -34 c25 -12 58 -36 75 -55 33 -38 74 -113 66 -121 -3 -3 -28 9 -57
27 -114 70 -146 51 -159 -92 -10 -111 -13 -122 -47 -137 l-26 -12 6 138 c5
152 24 233 60 258 27 19 28 19 82 -6z m785 -24 c0 -24 -5 -35 -15 -35 -10 0
-15 11 -15 35 0 24 5 35 15 35 10 0 15 -11 15 -35z m-548 -96 c30 -24 31 -28
30 -95 -2 -94 -33 -324 -43 -324 -5 0 -6 12 -4 28 3 15 12 81 20 147 l15 120
-33 27 c-17 15 -35 28 -38 28 -3 0 -15 24 -28 54 -12 30 -29 60 -37 67 -8 6
-14 15 -14 20 0 11 91 -38 132 -72z m408 -4 c0 -24 -5 -35 -15 -35 -10 0 -15
11 -15 35 0 24 5 35 15 35 10 0 15 -11 15 -35z m140 0 c0 -24 -5 -35 -15 -35
-10 0 -15 11 -15 35 0 24 5 35 15 35 10 0 15 -11 15 -35z m-1572 18 c-54 -2
-142 -2 -196 0 -53 1 -9 3 98 3 107 0 151 -2 98 -3z m802 -51 c0 -5 -14 -21
-31 -38 l-31 -29 8 30 c4 17 9 33 11 38 6 10 43 9 43 -1z m488 -39 c-2 -10
-10 -18 -18 -18 -8 0 -16 8 -18 18 -2 12 3 17 18 17 15 0 20 -5 18 -17z m140
0 c-5 -25 -28 -28 -28 -4 0 12 6 21 16 21 9 0 14 -7 12 -17z m-481 -25 c55
-33 62 -49 47 -105 -6 -20 -13 -23 -59 -23 l-52 0 -6 51 c-6 50 0 109 11 109
3 0 30 -14 59 -32z m-170 -29 c-24 -50 -29 -179 -8 -217 14 -27 7 -42 -12 -23
-8 8 -12 48 -12 119 0 86 4 113 18 135 27 42 37 32 14 -14z m63 2 c15 -29 12
-146 -4 -186 -32 -76 -63 -21 -54 93 8 95 34 137 58 93z m-960 -1 c0 -6 -31
-10 -74 -10 -41 0 -78 5 -81 10 -4 6 23 10 74 10 47 0 81 -4 81 -10z m405 0
c-4 -6 -75 -10 -181 -10 -109 0 -174 4 -174 10 0 6 67 10 181 10 117 0 178 -3
174 -10z m701 -147 c-3 -16 -8 -51 -11 -80 l-7 -52 -51 -6 c-65 -8 -119 -3
-124 11 -2 6 5 14 16 17 25 6 61 64 61 98 0 36 6 39 67 39 54 0 55 0 49 -27z
m-272 -150 c5 -15 0 -23 -19 -31 -29 -13 -31 -8 -38 100 -4 60 -3 67 17 76 20
9 21 6 27 -58 4 -37 10 -76 13 -87z m601 102 c226 -24 415 -139 415 -254 0
-101 -96 -136 -244 -91 -63 20 -66 22 -55 43 7 12 13 23 14 25 1 1 23 -7 49
-18 26 -11 69 -20 95 -20 129 0 119 109 -18 184 -58 31 -211 72 -306 82 -58 6
-65 9 -65 29 0 28 8 36 34 30 12 -2 48 -7 81 -10z m-538 -114 c1 -2 20 -7 40
-11 l38 -8 -40 -1 c-22 0 -45 3 -51 7 -16 10 -34 48 -34 69 0 12 7 7 22 -17
12 -19 23 -37 25 -39z m576 22 c140 -26 264 -80 287 -123 16 -30 12 -58 -11
-70 -29 -16 -89 -4 -179 35 -41 18 -115 46 -165 61 -49 15 -91 28 -93 30 -2 1
0 23 3 48 l7 46 37 -5 c20 -4 71 -13 114 -22z m-349 -38 c11 -30 -5 -44 -60
-51 -66 -8 -224 -1 -243 10 -21 13 28 37 51 25 27 -15 129 -9 183 11 64 23 62
22 69 5z m359 -111 c51 -16 57 -21 51 -39 -3 -11 -7 -30 -8 -42 0 -13 -3 -23
-6 -23 -3 0 -50 7 -104 14 -125 18 -142 32 -126 98 l12 46 61 -18 c34 -9 88
-26 120 -36z m-173 -130 c0 -19 -8 -22 -61 -28 -139 -14 -404 -3 -602 25 -71
10 -78 13 -75 33 3 20 7 21 103 16 192 -10 559 -5 580 7 17 10 23 8 37 -10 10
-12 18 -31 18 -43z"/>
<path d="M2177 1206 c-11 -12 -14 -61 -14 -263 0 -136 4 -256 9 -265 5 -10 20
-18 33 -18 13 0 28 8 34 18 5 9 9 129 8 265 0 201 -3 251 -14 263 -18 18 -38
18 -56 0z m43 -91 c0 -24 -5 -35 -15 -35 -10 0 -15 11 -15 35 0 24 5 35 15 35
10 0 15 -11 15 -35z m0 -105 c0 -29 -4 -40 -15 -40 -11 0 -15 11 -15 40 0 29
4 40 15 40 11 0 15 -11 15 -40z m0 -100 c0 -29 -4 -40 -15 -40 -11 0 -15 11
-15 40 0 29 4 40 15 40 11 0 15 -11 15 -40z m0 -110 c0 -29 -4 -40 -15 -40
-11 0 -15 11 -15 40 0 29 4 40 15 40 11 0 15 -11 15 -40z m-2 -85 c-2 -14 -7
-26 -13 -26 -5 0 -11 12 -13 26 -2 18 1 25 13 25 12 0 15 -7 13 -25z"/>
<path d="M2321 1206 c-8 -9 -11 -91 -9 -277 l3 -264 24 -3 c48 -7 51 12 51
276 0 148 -4 251 -10 263 -12 22 -43 25 -59 5z m39 -91 c0 -24 -5 -35 -15 -35
-10 0 -15 11 -15 35 0 24 5 35 15 35 10 0 15 -11 15 -35z m0 -105 c0 -29 -4
-40 -15 -40 -11 0 -15 11 -15 40 0 29 4 40 15 40 11 0 15 -11 15 -40z m0 -100
c0 -29 -4 -40 -15 -40 -11 0 -15 11 -15 40 0 29 4 40 15 40 11 0 15 -11 15
-40z m0 -110 c0 -29 -4 -40 -15 -40 -11 0 -15 11 -15 40 0 29 4 40 15 40 11 0
15 -11 15 -40z m-2 -85 c-2 -14 -7 -26 -13 -26 -5 0 -11 12 -13 26 -2 18 1 25
13 25 12 0 15 -7 13 -25z"/>
<path d="M2461 1206 c-8 -9 -11 -89 -9 -271 3 -233 5 -259 21 -269 12 -8 22
-8 35 0 15 10 17 36 20 269 2 182 -1 262 -9 271 -15 18 -43 18 -58 0z m39 -91
c0 -24 -5 -35 -15 -35 -10 0 -15 11 -15 35 0 24 5 35 15 35 10 0 15 -11 15
-35z m0 -105 c0 -29 -4 -40 -15 -40 -11 0 -15 11 -15 40 0 29 4 40 15 40 11 0
15 -11 15 -40z m0 -100 c0 -29 -4 -40 -15 -40 -11 0 -15 11 -15 40 0 29 4 40
15 40 11 0 15 -11 15 -40z m0 -110 c0 -29 -4 -40 -15 -40 -11 0 -15 11 -15 40
0 29 4 40 15 40 11 0 15 -11 15 -40z m0 -91 c0 -38 -24 -35 -28 4 -2 19 1 27
12 27 11 0 16 -10 16 -31z"/>
<path d="M2601 1206 c-8 -9 -11 -89 -9 -271 3 -233 5 -259 21 -269 12 -8 22
-8 35 0 15 10 17 36 20 269 2 182 -1 262 -9 271 -15 18 -43 18 -58 0z m49 -91
c0 -28 -4 -35 -20 -35 -16 0 -20 7 -20 35 0 28 4 35 20 35 16 0 20 -7 20 -35z
m0 -105 c0 -33 -3 -40 -20 -40 -17 0 -20 7 -20 40 0 33 3 40 20 40 17 0 20 -7
20 -40z m0 -100 c0 -33 -3 -40 -20 -40 -17 0 -20 7 -20 40 0 33 3 40 20 40 17
0 20 -7 20 -40z m0 -110 c0 -33 -3 -40 -20 -40 -17 0 -20 7 -20 40 0 33 3 40
20 40 17 0 20 -7 20 -40z m-5 -70 c8 -13 -4 -50 -16 -50 -13 0 -22 27 -15 45
6 17 22 20 31 5z"/>
<path d="M2741 1206 c-8 -9 -11 -89 -9 -271 3 -233 5 -259 21 -269 12 -8 22
-8 35 0 15 10 17 36 20 269 2 182 -1 262 -9 271 -15 18 -43 18 -58 0z m49 -91
c0 -27 -4 -35 -17 -35 -14 0 -18 8 -18 35 0 27 4 35 18 35 13 0 17 -8 17 -35z
m0 -105 c0 -28 -4 -40 -14 -40 -9 0 -15 14 -18 40 -3 33 0 40 14 40 14 0 18
-8 18 -40z m0 -100 c0 -32 -4 -40 -18 -40 -14 0 -17 7 -14 40 3 26 9 40 18 40
10 0 14 -12 14 -40z m0 -110 c0 -28 -4 -40 -14 -40 -9 0 -15 14 -18 40 -3 33
0 40 14 40 14 0 18 -8 18 -40z m-2 -87 c-4 -39 -28 -42 -28 -4 0 21 5 31 16
31 11 0 14 -8 12 -27z"/>
</g>
</svg>
