 <svg  version="1.0" xmlns="http://www.w3.org/2000/svg"  width="300.000000pt" height="554.000000pt" viewBox="0 0 300.000000 554.000000"  preserveAspectRatio="xMidYMid meet">  <g transform="translate(0.000000,554.000000) scale(0.100000,-0.100000)" fill="#000000" stroke="none"> <path d="M485 5510 c-182 -38 -330 -169 -379 -339 -14 -49 -16 -288 -16 -2392 0 -2261 1 -2339 19 -2398 26 -84 59 -137 128 -202 66 -63 135 -102 220 -124 86 -23 1990 -22 2077 0 187 49 327 192 365 373 8 37 11 517 11 1627 0 1393 2 1575 15 1575 13 0 15 39 15 295 0 251 -2 295 -14 295 -13 0 -15 67 -18 458 -3 436 -5 460 -25 513 -44 117 -125 210 -230 266 -120 64 -89 63 -1158 62 -533 -1 -988 -5 -1010 -9z m2064 -49 c126 -39 221 -120 280 -241 l36 -75 3 -459 c2 -382 5 -462 17 -480 22 -31 22 -524 0 -566 -13 -25 -15 -228 -15 -1614 l0 -1586 -25 -66 c-60 -158 -194 -266 -365 -293 -41 -6 -418 -9 -1025 -8 -939 3 -961 3 -1017 23 -165 60 -283 194 -308 350 -13 81 -12 4591 1 4668 15 88 56 163 124 232 54 55 81 72 182 117 36 15 582 23 1427 20 588 -2 623 -3 685 -22z"/> <path d="M459 5397 c-120 -41 -217 -137 -257 -254 -14 -43 -16 -269 -20 -2331 -2 -1618 0 -2303 8 -2353 24 -155 124 -271 280 -325 53 -18 98 -19 1035 -19 1077 0 1026 -3 1137 62 99 58 169 161 187 278 10 67 12 4419 2 4576 -5 79 -12 106 -38 160 -55 110 -156 191 -274 218 -24 6 -106 11 -181 11 -163 0 -178 -7 -178 -85 0 -57 -22 -100 -63 -125 -31 -19 -54 -20 -592 -20 -524 0 -563 1 -594 18 -44 24 -71 74 -71 134 0 72 -15 78 -180 77 -112 0 -146 -4 -201 -22z m348 -42 c-20 -68 24 -153 97 -186 38 -17 77 -19 596 -19 517 0 558 2 595 19 77 35 116 107 100 187 l-6 37 158 -5 c204 -7 249 -22 345 -118 58 -58 69 -75 87 -136 l21 -69 -2 -2320 -3 -2320 -23 -49 c-31 -67 -82 -127 -139 -164 -99 -64 -70 -62 -1129 -62 -931 0 -964 1 -1025 20 -78 24 -153 79 -197 144 -67 100 -62 -88 -60 2476 l3 2325 27 57 c48 103 161 189 275 208 26 4 103 8 170 9 l121 1 -11 -35z"/> <path d="M640 4623 c-30 -11 -60 -47 -66 -79 -8 -41 18 -97 52 -113 37 -16 1723 -16 1759 1 59 27 72 109 26 160 l-29 33 -864 2 c-475 1 -870 -1 -878 -4z m1740 -53 c24 -24 26 -67 3 -92 -15 -17 -56 -18 -875 -18 -845 0 -858 0 -878 20 -26 26 -25 60 0 88 l21 22 854 0 c842 0 855 0 875 -20z"/> <path d="M608 4191 c-28 -25 -33 -36 -33 -75 0 -36 6 -51 28 -73 l27 -28 863 -3 c636 -2 869 1 890 9 73 30 74 154 2 187 -19 9 -240 12 -885 12 l-860 0 -32 -29z m1770 -27 c28 -19 29 -67 2 -94 -20 -20 -33 -20 -873 -20 -667 0 -857 3 -870 13 -28 21 -32 72 -8 96 l21 21 853 0 c755 0 855 -2 875 -16z"/> <path d="M619 3795 c-54 -29 -60 -122 -12 -167 l25 -23 875 0 875 0 29 33 c33 37 37 77 14 122 -8 16 -24 34 -34 40 -13 7 -309 10 -883 10 -731 -1 -867 -3 -889 -15z m201 -31 c0 -6 -6 -17 -14 -23 -11 -9 -15 -8 -20 5 -10 26 -7 33 14 31 11 -1 20 -6 20 -13z m1559 -8 c27 -24 27 -70 1 -96 -19 -19 -33 -20 -530 -20 l-510 0 6 39 c4 23 1 47 -6 61 -10 18 -9 24 1 31 8 4 239 7 515 6 478 -2 503 -3 523 -21z m-1379 -7 c-9 -16 -14 -18 -26 -8 -21 17 -17 29 11 29 23 0 24 -2 15 -21z m185 1 c-10 -11 -19 -19 -19 -18 -1 2 -8 11 -15 21 -12 15 -10 17 19 17 32 0 33 0 15 -20z m-443 -7 c24 -22 24 -69 -1 -83 -28 -14 -52 -12 -73 7 -25 22 -23 59 4 77 29 20 47 20 70 -1z m188 -3 c24 -24 25 -47 3 -72 -40 -45 -115 -1 -94 55 16 41 59 49 91 17z m182 3 c24 -22 24 -69 -1 -83 -28 -14 -52 -12 -73 7 -25 22 -23 59 4 77 29 20 47 20 70 -1z m188 -3 c24 -24 25 -47 3 -72 -33 -36 -103 -10 -103 39 0 20 38 53 60 53 11 0 29 -9 40 -20z"/> <path d="M1756 3374 c-36 -37 -37 -114 -1 -149 l24 -25 273 0 c304 0 307 1 328 65 9 26 9 44 0 70 -21 64 -25 65 -326 65 l-271 0 -27 -26z m219 -14 c4 -6 1 -18 -6 -26 -12 -14 -14 -14 -26 2 -7 9 -10 21 -7 25 7 12 31 11 39 -1z m185 -4 c0 -8 -5 -18 -11 -22 -14 -8 -33 11 -25 25 10 16 36 13 36 -3z m-258 -23 c22 -20 23 -51 1 -75 -31 -35 -93 -10 -93 38 0 48 55 70 92 37z m189 -4 c22 -22 19 -55 -9 -76 -23 -19 -49 -16 -72 7 -24 24 -25 47 -3 72 21 24 58 23 84 -3z m181 4 c22 -20 23 -51 1 -75 -34 -38 -93 -12 -93 42 0 46 55 66 92 33z m66 5 c12 -16 7 -67 -7 -81 -8 -8 -11 0 -11 25 0 20 -3 43 -6 52 -7 19 9 21 24 4z"/> <path d="M485 2585 c-47 -16 -93 -66 -100 -110 -3 -16 -5 -246 -3 -510 3 -478 3 -480 25 -511 13 -17 40 -40 60 -50 36 -18 83 -19 988 -22 523 -2 973 0 1002 3 57 7 104 34 137 78 21 28 21 40 24 505 2 317 0 489 -8 514 -13 44 -66 93 -117 107 -25 7 -359 11 -1003 11 -804 -1 -972 -3 -1005 -15z m2023 -29 c15 -8 38 -27 52 -43 l25 -28 0 -497 0 -496 -36 -35 c-26 -25 -49 -37 -80 -42 -24 -3 -477 -5 -1006 -3 -953 3 -962 3 -989 24 -15 11 -37 33 -48 48 -20 27 -21 40 -23 489 -2 291 1 473 7 493 12 35 65 90 95 97 11 3 460 5 998 6 822 1 982 -1 1005 -13z"/> <path d="M504 2510 c-12 -5 -25 -14 -29 -20 -28 -45 68 -158 156 -184 69 -21 112 -20 139 2 28 23 23 50 -20 109 -50 68 -186 119 -246 93z m117 -31 c50 -15 105 -62 129 -110 11 -21 20 -41 20 -44 0 -3 -25 -5 -55 -5 -58 0 -116 19 -149 48 -28 25 -76 93 -76 109 0 17 77 18 131 2z"/> <path d="M2051 1932 c-65 -32 -76 -60 -76 -182 0 -122 11 -150 76 -182 44 -23 301 -26 352 -4 64 27 72 45 75 183 l4 124 -35 33 c-44 41 -68 46 -231 46 -105 0 -138 -4 -165 -18z m365 -30 c36 -29 44 -57 44 -151 0 -162 -13 -171 -240 -171 l-162 0 -29 29 c-29 29 -29 31 -29 141 0 110 0 112 29 141 l29 29 169 0 c144 0 171 -3 189 -18z"/> <path d="M2061 1844 c-13 -10 -13 -14 -2 -28 11 -13 28 -16 80 -14 60 3 66 5 69 26 2 13 -2 22 -10 23 -60 6 -124 2 -137 -7z"/> <path d="M2251 1844 c-13 -10 -13 -14 -2 -28 14 -16 102 -23 135 -10 19 7 22 43 4 45 -58 6 -124 2 -137 -7z"/> <path d="M2054 1765 c-11 -28 10 -36 82 -33 61 3 69 5 69 23 0 18 -8 20 -73 23 -59 2 -73 0 -78 -13z"/> <path d="M2244 1765 c-11 -28 10 -36 82 -33 61 3 69 5 69 23 0 18 -8 20 -73 23 -59 2 -73 0 -78 -13z"/> <path d="M2060 1695 c-22 -26 5 -44 63 -43 69 0 87 6 87 28 0 23 -19 30 -85 30 -34 0 -57 -5 -65 -15z"/> <path d="M2250 1695 c-22 -26 5 -44 63 -43 69 0 87 6 87 28 0 23 -19 30 -85 30 -34 0 -57 -5 -65 -15z"/> <path d="M551 1863 c-96 -18 -129 -124 -61 -192 26 -25 40 -30 106 -36 41 -4 137 -5 214 -3 154 5 179 13 207 72 21 45 11 95 -28 132 l-30 29 -192 1 c-106 1 -203 -1 -216 -3z m415 -38 c34 -23 49 -69 34 -105 -22 -54 -48 -60 -264 -60 l-194 0 -31 26 c-44 37 -44 91 0 128 l31 26 202 0 c160 0 206 -3 222 -15z"/> </g> </svg> 