<?xml version="1.0" standalone="no"?>
<!DOCTYPE svg PUBLIC "-//W3C//DTD SVG 20010904//EN"
 "http://www.w3.org/TR/2001/REC-SVG-20010904/DTD/svg10.dtd">
<svg version="1.0" xmlns="http://www.w3.org/2000/svg"
 width="183.000000pt" height="203.000000pt" viewBox="0 0 183.000000 203.000000"
 preserveAspectRatio="xMidYMid meet">
<metadata>
Created by potrace 1.10, written by Peter Selinger 2001-2011
</metadata>
<g transform="translate(0.000000,203.000000) scale(0.100000,-0.100000)"
fill="#000000" stroke="none">
<path d="M963 1905 c-35 -15 -45 -41 -58 -145 -6 -51 -53 -278 -76 -362 l-10
-38 -334 -2 -335 -3 -4 -165 c-2 -91 -5 -328 -5 -526 l-1 -362 -65 6 c-63 5
-65 4 -65 -19 0 -23 2 -24 65 -21 l65 4 0 -131 0 -131 259 0 c178 0 262 3 267
11 4 7 18 8 38 4 17 -4 130 -10 251 -14 l220 -6 -3 32 c-3 22 -16 43 -39 64
-19 16 -32 33 -29 36 3 4 19 -6 36 -22 l29 -28 -6 74 c-3 41 -9 92 -13 114 -7
35 -8 30 -9 -33 -1 -46 -5 -71 -11 -67 -5 3 -10 24 -10 46 0 26 -4 38 -11 34
-6 -4 -9 -23 -7 -44 2 -27 -1 -36 -12 -36 -8 0 -16 6 -16 13 -3 25 -6 26 -14
5 -9 -22 -14 -23 -142 -23 -73 0 -252 -3 -397 -7 l-264 -6 7 26 c4 16 2 27 -4
27 -5 0 -10 -11 -10 -25 0 -14 -4 -25 -10 -25 -6 0 -10 58 -11 153 -1 83 -5
166 -9 182 -4 17 -8 -47 -9 -153 -1 -169 -2 -183 -19 -180 -14 3 -17 14 -17
61 1 31 2 260 3 507 1 292 6 450 12 450 6 0 10 -37 10 -90 0 -57 4 -90 11 -90
7 0 9 31 7 90 -2 50 0 90 5 90 4 0 7 -10 7 -22 0 -13 5 -30 10 -38 7 -11 10
-6 10 21 l0 36 233 6 c127 4 440 7 695 7 l462 0 0 -60 c0 -33 4 -60 10 -60 6
0 10 28 10 65 0 37 4 65 10 65 6 0 10 -54 10 -141 0 -91 4 -138 10 -134 6 4
10 62 10 141 0 112 2 134 15 134 12 0 15 -19 15 -112 l0 -112 20 20 c20 20 21
28 14 192 l-7 172 -186 2 -186 3 -8 95 c-7 82 -4 115 18 237 15 79 25 157 23
175 -4 43 -17 45 -243 46 -133 1 -188 -2 -212 -13z m377 -25 c0 -5 -11 -17
-25 -26 -26 -17 -28 -17 -257 2 -43 3 -78 10 -78 15 0 5 75 10 168 12 92 1
173 4 180 5 6 1 12 -2 12 -8z m45 -42 c-8 -36 -72 -368 -80 -415 -9 -59 -29
-56 -22 3 3 27 1 41 -4 33 -14 -23 -20 -4 -8 30 6 17 9 40 6 50 -7 29 29 259
38 238 4 -9 4 -28 1 -42 -4 -14 -2 -25 3 -25 5 0 12 19 16 43 9 54 31 107 45
107 6 0 8 -10 5 -22z m-415 -10 c0 -7 -7 -42 -15 -77 -9 -35 -13 -66 -11 -69
3 -2 8 9 11 24 4 16 13 47 20 69 24 72 17 1 -16 -159 -25 -125 -35 -156 -57
-178 -14 -15 -27 -26 -29 -24 -2 2 8 48 21 103 13 55 32 150 41 212 10 61 21
111 26 111 5 0 9 -6 9 -12z m288 -26 c10 -7 8 -42 -12 -176 -13 -93 -29 -173
-35 -179 -15 -15 -14 22 4 103 8 36 14 72 14 80 0 32 -17 -15 -35 -95 -21 -96
-34 -115 -35 -55 l-1 45 -12 -39 c-16 -50 -36 -59 -36 -16 0 18 -4 29 -10 25
-5 -3 -10 -16 -10 -29 0 -21 -3 -22 -57 -18 -32 2 -61 7 -65 11 -3 3 2 40 13
81 10 41 24 113 30 160 6 47 13 91 15 98 4 14 210 17 232 4z m-30 -402 c2 -6
-17 -11 -45 -11 l-48 -1 53 -8 c29 -4 56 -11 59 -14 4 -3 -78 -6 -180 -6 -103
0 -187 3 -187 7 0 4 11 16 26 28 23 18 37 20 172 18 87 -2 148 -7 150 -13z
m467 -80 c-18 -7 -16 -8 10 -12 19 -3 9 -6 -27 -7 -31 0 -60 -6 -64 -12 -5 -9
9 -10 50 -7 31 3 59 1 62 -4 3 -4 -28 -8 -68 -9 -40 0 -93 -4 -118 -8 -35 -7
-20 -9 73 -10 70 -1 117 -5 117 -11 0 -6 -99 -10 -278 -10 -153 0 -503 -2
-778 -5 -297 -3 -485 -1 -465 4 18 5 161 12 317 16 157 4 299 11 317 16 35 9
-577 2 -630 -7 -32 -6 -33 -5 -33 30 l0 35 108 4 c240 7 1426 5 1407 -3z
m-805 -1255 c7 -8 10 -18 7 -22 -4 -3 -29 15 -56 40 -27 25 -46 48 -44 51 6 6
71 -43 93 -69z m29 33 c50 -43 60 -58 40 -58 -12 0 -109 82 -109 93 0 16 22 5
69 -35z m58 1 c48 -42 66 -65 43 -57 -17 5 -109 82 -110 91 -1 16 21 5 67 -34z
m72 -1 c27 -24 50 -46 50 -50 2 -20 -29 -3 -79 42 -69 62 -43 69 29 8z m61 -3
c61 -62 44 -67 -21 -6 -32 30 -48 50 -39 51 9 0 36 -20 60 -45z m-857 -10 c21
-24 34 -45 30 -48 -9 -6 -92 81 -85 88 9 9 17 4 55 -40z m49 8 c21 -20 38 -44
38 -52 0 -9 -18 2 -45 29 -42 42 -54 60 -38 60 4 0 24 -17 45 -37z m58 -8 c24
-25 38 -45 31 -45 -13 0 -91 72 -91 84 0 15 19 3 60 -39z m50 0 c24 -25 41
-45 36 -45 -11 0 -96 73 -96 82 0 17 18 6 60 -37z m49 3 c22 -24 37 -44 32
-46 -7 -2 -91 75 -91 84 0 14 24 -2 59 -38z m56 2 c21 -22 35 -43 31 -47 -3
-4 -28 14 -54 40 -28 28 -41 47 -31 47 8 0 32 -18 54 -40z m50 0 c21 -22 36
-43 32 -47 -8 -7 -87 65 -87 79 0 17 17 7 55 -32z m65 -5 c27 -27 38 -45 29
-45 -8 0 -35 20 -59 45 -27 27 -38 45 -29 45 8 0 35 -20 59 -45z m55 5 c21
-22 35 -43 31 -47 -3 -4 -28 14 -54 40 -28 28 -41 47 -31 47 8 0 32 -18 54
-40z m63 -1 c45 -43 49 -49 29 -49 -7 0 -33 20 -57 45 -55 56 -31 60 28 4z
m62 -4 c27 -27 38 -45 29 -45 -8 0 -35 20 -59 45 -27 27 -38 45 -29 45 8 0 35
-20 59 -45z m-580 -44 c-1 -10 -11 -4 -30 19 -39 45 -39 62 0 25 17 -16 30
-36 30 -44z"/>
<path d="M1115 1260 c-4 -6 28 -10 90 -10 62 0 94 4 90 10 -3 6 -44 10 -90 10
-46 0 -87 -4 -90 -10z"/>
<path d="M669 1079 c-8 -15 -8 -28 -1 -44 9 -20 22 -24 79 -31 97 -11 462 -9
472 2 18 20 21 62 5 78 -13 14 -53 16 -279 16 -259 0 -265 0 -276 -21z m489
-18 c26 -1 30 -4 21 -13 -22 -24 -349 -23 -349 1 0 4 16 8 36 9 20 1 38 3 40
4 2 3 105 2 252 -1z"/>
<path d="M1432 952 c-19 -20 -102 -106 -185 -189 -83 -84 -148 -155 -145 -159
7 -6 315 291 360 349 39 49 14 49 -30 -1z"/>
<path d="M1598 895 c-3 -27 -1 -32 9 -23 15 12 18 58 4 58 -5 0 -11 -16 -13
-35z"/>
<path d="M1402 819 c-82 -80 -80 -96 3 -24 36 32 65 64 65 71 0 8 -1 14 -3 14
-1 0 -31 -27 -65 -61z"/>
<path d="M754 752 c-84 -77 -188 -192 -181 -198 7 -7 247 225 247 238 0 16
-16 7 -66 -40z"/>
<path d="M952 465 c-48 -41 -155 -165 -148 -172 7 -7 135 114 168 160 27 38
17 44 -20 12z"/>
</g>
</svg>
