<?xml version="1.0" standalone="no"?>
<!DOCTYPE svg PUBLIC "-//W3C//DTD SVG 20010904//EN"
 "http://www.w3.org/TR/2001/REC-SVG-20010904/DTD/svg10.dtd">
<svg version="1.0" xmlns="http://www.w3.org/2000/svg"
 width="182.000000pt" height="154.000000pt" viewBox="0 0 182.000000 154.000000"
 preserveAspectRatio="xMidYMid meet">
<metadata>
Created by potrace 1.10, written by Peter Selinger 2001-2011
</metadata>
<g transform="translate(0.000000,154.000000) scale(0.100000,-0.100000)"
fill="#000000" stroke="none">
<path d="M370 1421 l-275 -6 -5 -191 c-5 -189 -5 -191 18 -208 l22 -17 0 131
c0 80 4 130 10 130 6 0 11 -16 11 -35 2 -47 3 -52 12 -61 4 -4 7 16 7 44 0 29
5 52 10 52 6 0 10 -38 10 -95 0 -57 4 -95 10 -95 6 0 10 37 10 90 l0 90 568
-2 c457 -3 566 -6 564 -16 -2 -10 2 -10 18 -2 11 6 72 10 145 9 l125 -1 0 -53
c0 -30 5 -57 10 -60 6 -4 10 16 10 54 0 33 4 62 8 65 5 3 12 -79 15 -182 10
-268 9 -842 -1 -842 -11 0 -22 250 -23 560 -2 217 -3 234 -11 150 -5 -52 -7
-233 -5 -403 4 -241 2 -307 -8 -307 -14 0 -25 112 -25 268 0 70 -4 102 -11
102 -9 0 -11 -49 -7 -185 5 -154 4 -185 -8 -185 -9 0 -14 12 -14 38 0 20 -5
44 -10 52 -7 11 -10 0 -10 -39 l0 -54 -182 6 c-99 4 -273 7 -385 7 l-203 0 -1
33 -1 32 -7 -30 c-11 -53 -26 -28 -31 52 -6 90 -20 68 -20 -32 0 -38 -3 -56
-10 -49 -5 5 -11 70 -13 144 -2 98 -3 77 -4 -75 -1 -116 -4 -217 -8 -225 -4
-13 21 -15 195 -12 119 2 200 7 200 12 0 12 33 13 46 1 11 -11 496 -23 570
-15 29 4 51 11 48 16 -3 5 -7 35 -9 66 -11 202 -11 192 8 192 9 0 17 6 17 13
0 15 -20 46 -20 32 0 -5 -5 -3 -10 5 -6 9 -10 212 -10 523 l0 507 -504 0
c-277 0 -516 1 -532 3 -16 2 -153 1 -304 -2z m-220 -81 c0 -27 -4 -50 -10 -50
-5 0 -10 23 -10 50 0 28 5 50 10 50 6 0 10 -22 10 -50z m1440 -5 l0 -55 -77 0
-77 0 34 29 c19 16 32 32 28 36 -4 4 -27 -9 -51 -29 l-45 -37 -616 7 -616 7 0
49 0 48 710 0 710 0 0 -55z m40 -6 c0 -32 -4 -49 -12 -49 -9 0 -12 16 -10 55
5 67 22 63 22 -6z m40 6 c0 -30 -4 -55 -10 -55 -5 0 -10 25 -10 55 0 30 5 55
10 55 6 0 10 -25 10 -55z m-919 -1177 c50 -43 59 -58 37 -58 -14 0 -98 79 -98
92 0 15 11 8 61 -34z m63 -4 c27 -24 46 -47 43 -51 -5 -5 -117 84 -117 93 0
15 32 -4 74 -42z m57 4 c45 -38 60 -58 42 -58 -15 1 -118 99 -105 100 7 0 36
-19 63 -42z m68 0 c50 -46 59 -58 41 -58 -13 0 -110 81 -110 93 0 17 26 4 69
-35z m74 -4 c49 -47 54 -54 36 -54 -13 0 -109 80 -109 92 0 19 28 5 73 -38z
m61 5 c43 -38 57 -59 38 -59 -12 0 -102 81 -102 92 0 16 18 7 64 -33z m74 -10
c45 -43 49 -49 30 -49 -12 0 -98 75 -98 85 0 15 31 -1 68 -36z m69 -4 c63 -58
34 -58 -32 0 -32 28 -44 44 -33 45 9 0 38 -20 65 -45z m62 4 c24 -21 41 -42
38 -45 -7 -8 -25 3 -77 49 -33 28 -39 37 -24 37 10 -1 39 -19 63 -41z m69 -4
c63 -60 31 -60 -34 0 -35 32 -44 45 -31 45 10 0 39 -20 65 -45z m62 0 c57 -58
30 -58 -33 0 -37 34 -44 45 -30 45 10 0 39 -20 63 -45z m55 5 c51 -52 38 -64
-17 -15 -48 44 -56 55 -36 55 8 0 31 -18 53 -40z m65 -5 c55 -56 31 -60 -27
-4 -46 43 -50 49 -30 49 7 0 33 -20 57 -45z m64 3 c19 -24 30 -45 25 -47 -11
-3 -89 67 -89 81 0 21 32 4 64 -34z m56 2 c18 -23 30 -43 27 -46 -9 -9 -23 2
-57 46 -22 28 -27 40 -17 40 9 0 30 -18 47 -40z m-910 -41 c0 -14 -11 -11 -32
8 -27 24 -22 36 7 17 14 -9 25 -20 25 -25z"/>
<path d="M638 1149 c-10 -6 -18 -22 -18 -37 0 -56 -2 -55 257 -54 131 1 251 5
267 10 37 10 51 32 42 65 l-6 27 -263 0 c-159 0 -269 -5 -279 -11z m292 -29
c0 -3 43 -4 95 -4 55 1 92 -2 89 -7 -3 -5 -22 -9 -42 -9 -20 1 -117 -2 -216
-5 -126 -5 -176 -3 -171 4 3 6 0 11 -7 12 -7 1 -3 4 10 7 27 8 242 9 242 2z"/>
<path d="M243 1129 c4 -13 7 -41 7 -61 0 -21 5 -38 10 -38 17 0 8 112 -9 118
-10 4 -12 -1 -8 -19z"/>
<path d="M150 1026 c0 -31 5 -56 10 -56 6 0 10 22 10 49 0 28 -4 53 -10 56 -6
4 -10 -15 -10 -49z"/>
<path d="M200 981 c0 -34 5 -58 15 -68 14 -13 15 -9 9 44 -9 76 -24 92 -24 24z"/>
<path d="M1389 928 c-182 -141 -519 -429 -527 -450 -8 -19 15 -2 141 105 72
61 206 171 297 243 91 72 174 141 184 153 42 46 5 27 -95 -51z"/>
<path d="M250 921 c0 -17 5 -33 10 -36 6 -4 10 8 10 29 0 20 -4 36 -10 36 -5
0 -10 -13 -10 -29z"/>
<path d="M307 903 c-13 -12 -7 -51 8 -56 11 -5 13 0 8 26 -7 38 -8 39 -16 30z"/>
<path d="M367 848 c-2 -28 1 -48 9 -57 12 -13 13 -6 11 42 -2 67 -13 75 -20
15z"/>
<path d="M437 833 c-11 -10 -8 -93 3 -93 6 0 10 23 10 50 0 51 -1 55 -13 43z"/>
<path d="M490 743 c0 -23 5 -45 10 -48 13 -8 13 55 0 75 -7 11 -10 4 -10 -27z"/>
<path d="M1451 704 c-65 -51 -85 -74 -62 -74 5 0 14 7 21 15 7 8 41 35 76 60
35 26 64 48 64 51 0 16 -38 -4 -99 -52z"/>
<path d="M1060 600 c-30 -27 -51 -49 -47 -50 10 0 113 76 122 90 17 27 -26 4
-75 -40z"/>
</g>
</svg>
