<?xml version="1.0" standalone="no"?>
<!DOCTYPE svg PUBLIC "-//W3C//DTD SVG 20010904//EN"
 "http://www.w3.org/TR/2001/REC-SVG-20010904/DTD/svg10.dtd">
<svg version="1.0" xmlns="http://www.w3.org/2000/svg"
 width="152.000000pt" height="211.000000pt" viewBox="0 0 152.000000 211.000000"
 preserveAspectRatio="xMidYMid meet">
<metadata>
Created by potrace 1.10, written by Peter Selinger 2001-2011
</metadata>
<g transform="translate(0.000000,211.000000) scale(0.100000,-0.100000)"
fill="#000000" stroke="none">
<path d="M169 1947 c-73 -48 -69 5 -69 -937 0 -942 -4 -889 69 -937 l34 -23
554 0 c610 0 589 -2 635 62 l23 33 0 865 0 865 -23 33 c-46 64 -25 62 -635 62
l-554 0 -34 -23z m1172 -55 l29 -32 0 -850 0 -850 -29 -32 -29 -33 -552 0
-552 0 -29 33 -29 32 0 849 0 848 21 27 c12 15 31 32 43 36 11 5 263 8 559 7
l539 -2 29 -33z"/>
<path d="M696 1829 c-34 -40 -33 -74 3 -110 36 -36 79 -38 115 -6 40 34 43 77
11 115 -38 45 -92 45 -129 1z m88 3 c3 -5 -15 -28 -39 -52 l-45 -44 0 36 c0
27 6 41 22 52 24 17 54 21 62 8z m36 -52 c0 -34 -30 -70 -59 -70 -34 0 -32 17
7 58 46 48 52 50 52 12z"/>
<path d="M500 1020 l0 -590 260 0 260 0 0 590 0 590 -260 0 -260 0 0 -590z
m490 283 l0 -283 -232 0 -233 0 2 282 c2 156 3 283 3 283 0 0 104 0 230 0
l230 0 0 -282z m2 -538 l3 -235 -235 0 -235 0 0 235 0 235 232 0 232 0 3 -235z
m-2 -282 l0 -23 -235 0 c-221 0 -235 1 -235 18 0 10 2 21 4 23 2 2 108 4 235
4 l231 0 0 -22z"/>
<path d="M725 346 c-31 -13 -55 -51 -55 -87 0 -32 53 -79 89 -79 38 0 79 36
87 76 5 26 1 37 -23 62 -35 38 -59 45 -98 28z m65 -24 c0 -4 -20 -28 -45 -52
l-45 -44 0 36 c0 27 6 41 22 52 23 17 68 22 68 8z m30 -49 c0 -34 -8 -46 -37
-61 -20 -11 -53 -7 -53 6 0 9 73 82 82 82 4 0 8 -12 8 -27z"/>
</g>
</svg>
